<svg id="Layer_1" data-name="Layer 1" xmlns="http://www.w3.org/2000/svg" viewBox="0 0 600 1000"><defs><style>.cls-1{fill:#081c14;}.cls-2{fill:#ea42aa;}.cls-3{fill:#ff7b6a;}.cls-4{fill:#ffe99d;}.cls-5{fill:#ddc78a;}.cls-6{fill:#fff5f8;opacity:0.38;}</style></defs><path class="cls-1" d="M362.53,577.4c-10-10.24-113-11.36-123.13,0-8.72,9.73-5.1,23.66,6.11,25.7s22-3.39,33-3.94,22.42-.61,22.42-.61v0s11.42.05,22.43.61,21.81,6,33,3.94S371.65,586.75,362.53,577.4Zm-10.7,14.7c-9.94-2.7-18.82-7.58-30.29-8.76-10.43-1.07-29.45-1.58-41.14,0-10,1.35-20.18,6.82-30.29,8.76-10.26,2-10.89-3.36-5.61-6.19,26.7-14.31,95-9.47,112.93,0C365.09,590,360.94,594.57,351.83,592.1Z"/><path class="cls-2" d="M362.53,575.26c-10-10.24-113-11.36-123.13,0-8.72,9.73-5.1,23.66,6.11,25.69s22-3.38,33-3.93,22.42-.62,22.42-.62v0s11.42.06,22.43.62,21.81,6,33,3.93S371.65,584.61,362.53,575.26Z"/><path class="cls-1" d="M357.43,583.76c-17.92-9.47-86.23-14.32-112.93,0-5.28,2.83-4.65,8.16,5.61,6.19s20.28-7.41,30.29-8.76c11.69-1.57,30.71-1.07,41.14,0,11.47,1.18,20.35,6.06,30.29,8.75C360.94,592.42,365.09,587.81,357.43,583.76Z"/><path class="cls-3" d="M362.53,575.26c-10-10.24-113-11.36-123.13,0-8.72,9.73-5.1,23.66,6.11,25.69s22-3.38,33-3.93,22.42-.62,22.42-.62v0s11.42.06,22.43.62,21.81,6,33,3.93S371.65,584.61,362.53,575.26ZM351.83,590c-9.94-2.69-18.82-7.57-30.29-8.75-10.43-1.08-29.45-1.58-41.14,0-10,1.35-20.18,6.82-30.29,8.76-10.26,2-10.89-3.36-5.61-6.19,26.7-14.32,95-9.47,112.93,0C365.09,587.81,360.94,592.42,351.83,590Z"/><path class="cls-4" d="M244.43,583.76a9.8,9.8,0,0,0-1.35.87,23,23,0,0,0,2.46,7.55.64.64,0,0,0,1.14,0c1.37-2.84,2.56-5.76,3.75-8.67a7.56,7.56,0,0,0,.64-2.16,3.68,3.68,0,0,0,0-.47A48,48,0,0,0,244.43,583.76Z"/><path class="cls-4" d="M357.36,583.76a37.64,37.64,0,0,0-5.29-2.2,9.63,9.63,0,0,0,.36,1.59c.87,3,1.74,6.06,2.8,9a.64.64,0,0,0,1.13.13,23,23,0,0,0,3.23-7.11A13.92,13.92,0,0,0,357.36,583.76Z"/><path class="cls-5" d="M352.07,581.35a10.11,10.11,0,0,0,.36,1.59l.43,1.48a2.74,2.74,0,0,1,1.36-.41,4.85,4.85,0,0,1,3.62,2.13,16,16,0,0,1,.94,1.38,16.15,16.15,0,0,0,.81-2.53,13.27,13.27,0,0,0-2.23-1.44A35.4,35.4,0,0,0,352.07,581.35Z"/><path class="cls-5" d="M244.43,583.76a9.8,9.8,0,0,0-1.35.87,15,15,0,0,0,.34,1.93c2.07-1,4.63-3.73,6.36-2.17a2,2,0,0,1,.21.2c.15-.36.29-.73.44-1.09a7.56,7.56,0,0,0,.64-2.16,3.68,3.68,0,0,0,0-.47A48,48,0,0,0,244.43,583.76Z"/><path class="cls-6" d="M241.51,580.21a9.85,9.85,0,0,0,3.77-1.33c6.37-3.11,13.57-4,20.34-6,.42-.13.91-.33,1-.77.14-.66-.72-1-1.4-1.11-3.66-.38-7.32.48-10.91,1.34a78.79,78.79,0,0,0-11,3.25,5.5,5.5,0,0,0-2.67,1.58C239.85,578.25,239.61,580.29,241.51,580.21Z"/><path class="cls-6" d="M271.05,572.35a15.4,15.4,0,0,0,4.83-1.18,1.72,1.72,0,0,0,1.08-.82.33.33,0,0,0,0-.29c-.05-.1-.17-.13-.28-.16a11.74,11.74,0,0,0-6.17.09C268.67,570.59,269,572.43,271.05,572.35Z"/><path class="cls-6" d="M316,589.07a2.34,2.34,0,0,0-1.25.58c-.74.78-.11,2.17.87,2.62a6.93,6.93,0,0,0,3.18.23c3.91-.18,7.75,1.31,11.66,1.19a1.67,1.67,0,0,0,1.39-.53,1.43,1.43,0,0,0,0-1.29C329.84,586.64,320,588.13,316,589.07Z"/></svg>