<svg id="Layer_1" data-name="Layer 1" xmlns="http://www.w3.org/2000/svg" viewBox="0 0 600 1000"><defs><style>.cls-1{fill:#081c14;}.cls-2{fill:#ea42aa;}.cls-3{fill:#2a0700;}.cls-4{fill:#ff7b6a;}.cls-5{fill:#fff5f8;opacity:0.38;}</style></defs><path class="cls-1" d="M244.51,596.73c10,10.24,113,11.36,123.13,0,8.72-9.72,5.1-23.66-6.11-25.69s-22,3.38-33,3.94-22.42.61-22.42.61v0s-11.42-.06-22.43-.61-21.81-6-33-3.94S235.39,587.38,244.51,596.73ZM255.21,582c9.94,2.69,18.82,7.58,30.29,8.76,10.43,1.07,29.45,1.58,41.14,0,10-1.35,20.18-6.82,30.29-8.76s10.89,3.36,5.61,6.2c-26.71,14.31-95,9.46-112.94,0C242,584.18,246.1,579.57,255.21,582Z"/><path class="cls-2" d="M368,594.94C357.89,605.35,253.3,606.48,243,595c-8.86-9.88-5.18-24,6.21-26.09s22.36,3.43,33.54,4,22.78.63,22.78.63v0s11.6-.06,22.78-.63,22.16-6.06,33.55-4S377.3,585.44,368,594.94Z"/><path class="cls-3" d="M362.87,586.31c-18.21,9.62-87.59,14.54-114.72,0-5.37-2.88-4.72-8.28,5.7-6.29s20.6,7.53,30.77,8.9c11.87,1.6,31.19,1.08,41.78,0,11.65-1.19,20.67-6.16,30.77-8.89C366.43,577.51,370.64,582.2,362.87,586.31Z"/><path class="cls-4" d="M361.83,568.85c-11.39-2.07-22.37,3.43-33.55,4s-22.78.63-22.78.63v0s-11.59-.06-22.78-.63-22.15-6.06-33.54-4S234.11,585.08,243,595c10.33,11.52,114.92,10.39,125.07,0C377.3,585.44,373.21,570.91,361.83,568.85Zm1,17.46c-18.21,9.62-87.59,14.54-114.72,0-5.37-2.87-4.72-8.28,5.7-6.29s20.6,7.53,30.77,8.9c11.87,1.6,31.19,1.08,41.78,0,11.65-1.19,20.67-6.16,30.77-8.89C366.43,577.51,370.64,582.2,362.87,586.31Z"/><path class="cls-5" d="M245.12,589.92a10.05,10.05,0,0,1,3.83,1.35c6.46,3.16,13.78,4,20.65,6.12.44.13.93.34,1,.78.14.67-.74,1.06-1.42,1.13-3.72.39-7.44-.49-11.08-1.36a78.66,78.66,0,0,1-11.14-3.3,5.6,5.6,0,0,1-2.71-1.61C243.43,591.91,243.18,589.84,245.12,589.92Z"/><path class="cls-5" d="M275.12,597.9a15.51,15.51,0,0,1,4.9,1.2,1.79,1.79,0,0,1,1.11.83.35.35,0,0,1,0,.3.49.49,0,0,1-.29.16,12,12,0,0,1-6.27-.09C272.7,599.68,273.07,597.82,275.12,597.9Z"/><path class="cls-5" d="M320.74,580.92a2.38,2.38,0,0,1-1.26-.59c-.75-.8-.11-2.21.88-2.66a6.87,6.87,0,0,1,3.23-.24c4,.18,7.88-1.33,11.85-1.2a1.73,1.73,0,0,1,1.41.53,1.47,1.47,0,0,1,0,1.31C334.83,583.38,324.81,581.87,320.74,580.92Z"/></svg>