<svg xmlns="http://www.w3.org/2000/svg" viewBox="0 0 600 1000"><defs><style>.cls-1{isolation:isolate;}.cls-2{opacity:0.7;}.cls-2,.cls-8{mix-blend-mode:multiply;}.cls-3,.cls-4{font-size:10.58px;font-family:LEMONMILK-Bold, LEMON MILK;font-weight:700;}.cls-4,.cls-9{fill:#fff;}.cls-5{fill:#ccc;}.cls-6{fill:#e6e6e6;}.cls-7{fill:#333;}.cls-8{opacity:0.75;}.cls-10{fill:#faf9f9;}</style></defs><g class="cls-1"><g id="Layer_1" data-name="Layer 1"><g class="cls-2"><text class="cls-3" transform="translate(220.53 149.93)">+2</text></g><text class="cls-4" transform="translate(219.53 149.93)">+2</text><path class="cls-5" d="M205.19,371.16l-11.56,1.43c-3.76,41,0,74.65,31.92,123.55l37.09-23.92C226.23,432.89,206.55,410.27,205.19,371.16Z"/><path class="cls-5" d="M201.79,376.36l-6.13,1.56c-2,40.44,3.22,62.53,31.12,110.34l26.11-16.43C216.49,432.49,203.15,415.47,201.79,376.36Z"/><polygon class="cls-6" points="205.32 446.61 214.13 423.64 252.89 471.83 226.78 488.26 205.32 446.61"/><path class="cls-5" d="M397.69,352.11c-28.78-168.62-193.59-134.85-201.1,5.81l-11.68,13,229.34.23Z"/><polygon class="cls-7" points="307.72 229.1 291.8 229.26 292.75 326.21 308.66 326.06 307.72 229.1"/><path class="cls-5" d="M396.75,373l11.36,1.24c6.9,40.91,5.93,74.6-21.28,124l-38-23.31C381.17,435,398.52,412.08,396.75,373Z"/><polygon class="cls-7" points="414.34 369.25 183.16 367 182.68 378.08 413.86 380.33 414.34 369.25"/><path class="cls-6" d="M284.42,241.67S300.73,352.75,206,353.59C206,353.59,199.63,268.34,284.42,241.67Z"/><path class="cls-5" d="M400.48,382.42l4.54.13c5.93,35.22,4,65.82-19.41,108.33l-28.8-16.73C384.67,439.81,402,416.09,400.48,382.42Z"/><g class="cls-8"><path d="M206.68,369.86a4.82,4.82,0,1,0-5.57,3.95A4.82,4.82,0,0,0,206.68,369.86Z"/><path d="M235.23,368.85a4.82,4.82,0,1,0-5.57,3.95A4.82,4.82,0,0,0,235.23,368.85Z"/><path d="M265.73,369.8a4.82,4.82,0,1,0-5.56,3.95A4.82,4.82,0,0,0,265.73,369.8Z"/><path d="M345.68,369.71a4.82,4.82,0,1,0-5.57,4A4.83,4.83,0,0,0,345.68,369.71Z"/><path d="M306.38,293.87a4.82,4.82,0,1,0-5.56,3.94A4.83,4.83,0,0,0,306.38,293.87Z"/><path d="M306.39,267.94a4.82,4.82,0,1,0-5.55,3.94A4.83,4.83,0,0,0,306.39,267.94Z"/><path d="M306.41,242a4.82,4.82,0,1,0-5.57,3.94A4.83,4.83,0,0,0,306.41,242Z"/><path d="M377.93,370a4.82,4.82,0,1,0-5.58,3.94A4.84,4.84,0,0,0,377.93,370Z"/><path d="M405.74,369.5a4.82,4.82,0,1,0-5.57,3.95A4.82,4.82,0,0,0,405.74,369.5Z"/></g><path class="cls-9" d="M205.68,368.86a4.82,4.82,0,1,0-5.57,3.95A4.82,4.82,0,0,0,205.68,368.86Z"/><path class="cls-9" d="M234.23,367.85a4.82,4.82,0,1,0-5.57,3.95A4.82,4.82,0,0,0,234.23,367.85Z"/><path class="cls-9" d="M264.73,368.8a4.82,4.82,0,1,0-5.56,3.95A4.82,4.82,0,0,0,264.73,368.8Z"/><path class="cls-9" d="M344.68,368.71a4.82,4.82,0,1,0-5.57,4A4.83,4.83,0,0,0,344.68,368.71Z"/><path class="cls-9" d="M305.38,292.87a4.82,4.82,0,1,0-5.56,3.94A4.83,4.83,0,0,0,305.38,292.87Z"/><path class="cls-9" d="M305.39,266.94a4.82,4.82,0,1,0-5.55,3.94A4.83,4.83,0,0,0,305.39,266.94Z"/><path class="cls-9" d="M305.41,241a4.82,4.82,0,1,0-5.57,3.94A4.83,4.83,0,0,0,305.41,241Z"/><path class="cls-9" d="M376.93,369a4.82,4.82,0,1,0-5.58,3.94A4.84,4.84,0,0,0,376.93,369Z"/><path class="cls-9" d="M404.74,368.5a4.82,4.82,0,1,0-5.57,3.95A4.82,4.82,0,0,0,404.74,368.5Z"/><path class="cls-6" d="M325.91,249.88c-12-5.11-4.22,73.66,62.63,97.76C388.54,347.64,388.87,276.75,325.91,249.88Z"/><polygon class="cls-6" points="378.05 447.11 396.12 470.25 385.61 490.88 356.81 474.15 378.05 447.11"/><path class="cls-10" d="M235.3,301.4c4.38-7.52,5.19-15.21,1.82-17.18s-9.67,2.54-14,10.06-5.2,15.21-1.83,17.17S230.92,308.92,235.3,301.4Z"/></g></g></svg>