<svg xmlns="http://www.w3.org/2000/svg" xmlns:xlink="http://www.w3.org/1999/xlink" viewBox="0 0 600 1000"><defs><style>.cls-1{fill:none;}.cls-2{isolation:isolate;}.cls-3{opacity:0.7;mix-blend-mode:multiply;}.cls-4,.cls-5{font-size:10.58px;font-family:LEMONMILK-Bold, LEMON MILK;font-weight:700;}.cls-5{fill:#fff;}.cls-6{fill:#333;}.cls-7{fill:#e6e6e6;}.cls-8{fill:#ccc;}.cls-9{clip-path:url(#clip-path);}.cls-10{fill:#fec600;}.cls-11{fill:#006830;}.cls-12{fill:#006730;}.cls-13{fill:#000100;}.cls-14{fill:#010100;}.cls-15{fill:#00662f;}.cls-16{fill:#00652f;}.cls-17{fill:#f2f2f2;}</style><clipPath id="clip-path"><path class="cls-1" d="M239.35,541.84c-4.52-56.14-44.52-98.72-89.33-95.11s-77.47,52-73,108.19S121.59,653.64,166.4,650,243.87,598,239.35,541.84Z"/></clipPath></defs><g class="cls-2"><g id="Layer_1" data-name="Layer 1"><g class="cls-3"><text class="cls-4" transform="translate(340.31 149.93)">+2</text></g><text class="cls-5" transform="translate(339.31 149.93)">+2</text><path class="cls-6" d="M255.93,543.16c-5-61.55-50.91-108.07-102.64-103.9s-89.63,57.45-84.67,119,50.91,108.07,102.63,103.9S260.89,604.71,255.93,543.16Z"/><path class="cls-7" d="M251.87,540.83c-5-61.55-50.92-108.07-102.64-103.9s-89.63,57.45-84.68,119S115.47,664,167.19,659.83,256.83,602.39,251.87,540.83Z"/><path class="cls-8" d="M251.14,542.42c-4.8-59.6-46.72-104.85-93.62-101.07s-81,55.16-76.23,114.76S128,661,174.91,657.17,256,602,251.14,542.42Z"/><g class="cls-9"><path class="cls-10" d="M396.47,616.06v38.46c-4.6,1.37-6.63-2.52-9.27-4.8-3.19-2.76-6.22-3-9.24-.27-10.18,9-20.28,18.07-27.1,30.09-2.82,5-3.54,9.85-.49,15.11,1.49,2.58,3.81,5.72-.49,8.2a4.18,4.18,0,0,1-1.49.56c-13.81.44-27.61.75-41.4-.45-2.67-1.1-3.2-3.42-3-5.91.55-7.78-3.38-13.66-7.76-19.5C289.81,669,282,661.83,274.77,654c-2.93-3.19-5.6-3.35-8.94-.75a110.68,110.68,0,0,0-29.52,34.07c-2.68,4.83.35,10.81-3.92,15-11.65.68-23.28,2.66-34.95.27-3.76-2.7-1.63-5.78-.19-8.43,2.73-5,1.65-9.38-1.91-13.15-9.85-10.42-18-22.35-28.51-32.19-6.37-6-7.47-6.25-13.49.3-8.08,8.79-16.33,17.47-23.57,27-4.36,5.73-7.28,11.71-3.62,19.11,1.33,2.7,1.52,5.76-1.93,7.58-2.13.51-54.3.42-56.29-.06-3.12-1.7-2.61-4.46-1.59-6.94,4.52-11,.13-19.71-7.08-27.57-3.42-3.73-6.84-7.39-8.85-12.12V612.85c2.7-8.75,7.53-16.42,13-23.56s5-13.28.47-20.44c-4.79-7.58-10.72-14.54-13.46-23.32V515.08C59,502,68.16,489.2,76.37,475.8c5.4-8.82,5.82-9.8-.42-18.44-6.71-9.3-13.05-18.87-20.16-27.87-2.57-3.25-3.39-7.16-5.38-10.58V383.64a75.63,75.63,0,0,1,9.47-22.26c1.76-2.7,3.67-5.09,6.56-6.59H85.66c1.81,3.91-1,6.6-2.68,9.45-5.13,8.44-11.57,16-16.64,24.47-5.47,9.14-5.32,13.66,1.29,21.82,8.05,9.93,14.11,21.4,23.55,30.25,6.71,6.3,10,6.15,15-1.82,7.25-11.49,13.18-23.79,20.88-35,2.78-4.05,2.06-8.16-.32-12-6.26-10.2-11.41-21.15-20.28-29.6-2-1.9-4.56-4-3.19-7.51h24c9.06,10,17.57,20.55,26.72,30.5,5.52,6,7.05,6,13,.64,7.7-7,13.68-15.55,20.16-23.62a25.27,25.27,0,0,1,9.05-7.52h19.22c1.37,4.26-2.06,6.28-4.27,8.68-6.68,7.25-13.56,14.36-19.09,22.52-8.52,12.59-7.85,18,2.7,28.56,7.71,7.74,15.27,15.63,23.24,23.09,5.4,5.07,7.89,4.79,12.31-1.11,5.43-7.24,10.52-14.74,15.84-22.06,5.78-8,5.46-15.72-.26-23.58-6.58-9.05-13.51-17.84-20-27-1.86-2.62-5.13-5.16-2.47-9.14h11.22c6.15,4.08,10,10.23,13.85,16.22,4.93,7.63,10.94,14.38,17.05,21,7.48,8.1,12,7.47,18.09-1.59,4.9-7.32,8.53-15.29,12-23.37,2.08-4.91,4.31-9.77,9.55-12.25h16c2.67,4-.78,6.43-2.65,9-6.36,8.91-12.14,18.11-16.38,28.27C298.91,399.83,299,407,304,414c6.8,9.52,12.2,20.06,20.13,28.75,8.45,9.27,13,8.54,19.4-2.12,7.28-12.11,12.67-25.21,19.76-37.42,2.43-4.19,1.13-7.55-1.37-11A221.41,221.41,0,0,0,337.21,364c-2.48-2.45-6.16-4.64-4.83-9.24h19.23c6.12,2.77,9.22,8.56,13.32,13.34,2.42,2.82,4.92,5.57,7.16,8.54,6.22,8.28,13.2,14.39,24.38,8.58V417.3c-12.42-4.94-17.39,4.19-23.11,12.13-5.92,8.23-11.2,16.86-16.64,25.4-2.78,4.35-3.73,8.84-.72,13.48,7,10.77,12.41,22.34,17.78,33.95a38.28,38.28,0,0,0,2,3.45c4.67,7.86,10.68,13.18,20.68,11v27.25c-5.87,1-7.44-4.06-10.09-7.36-5-6.26-6.72-6.71-13-1.84a142.9,142.9,0,0,0-33,35.48c-3.55,5.47-3.42,10.51,1.32,15.12,10.2,9.92,17.73,21.91,26,33.31a51.9,51.9,0,0,0,4,5c7.45,7.95,9.81,7.71,16.72-1C390.58,619.94,391.6,615.53,396.47,616.06Z"/><path d="M332.38,354.79a384.75,384.75,0,0,1,31.39,35c4.2,5.25,5.23,9.64,1.13,16.23C357.49,418,352,431,345.09,443.3c-6.75,12.06-13,12.93-21.89,2.58-9.69-11.3-17.48-24.07-25.25-36.76-2.71-4.42-1.4-9.25.18-13.89,4.51-13.27,12.4-24.6,20.44-35.85,1-1.42,3-2.33,2.6-4.59Z"/><path d="M103.28,354.79c11.44,9.88,18.06,23.21,25.9,35.71,3.38,5.39,3.58,9.71-.05,15.29-7.41,11.36-13.78,23.4-20.94,34.93-6.74,10.84-10.92,11.1-19.59,1.63-10.12-11-17.94-23.84-27-35.7-3.26-4.27-2.51-8.94-.44-13.62,2.94-6.65,7.16-12.45,11.43-18.25,4.72-6.42,9.65-12.71,13.07-20Z"/><path d="M396.47,616.06c-3.3,4.42-6.55,8.88-9.9,13.25-3.68,4.81-7.76,4.87-12.22,1A54.44,54.44,0,0,1,365,619.44c-8-12-16.14-23.83-26.54-33.89-4.32-4.18-4.82-8.75-2-13.68,10-17.45,24.58-30.57,40.13-42.77,3.43-2.7,6.22-1.48,8.85,1.75,3.61,4.42,5.6,10.25,11.08,13.08v19.23c-5.3,1.15-6.68-3.41-8.91-6.38-12.07-16.1-10.18-12.59-19.73-.25-3.58,4.63-7.34,9.13-10.56,14s-3.28,9.25.56,13.85c6.17,7.36,11.05,15.66,16.66,23.43,4.63,6.41,6.66,6.17,10.68-.82,2-3.46,3.49-7.21,5.59-10.6,1.3-2.09,2.1-5.17,5.71-4.42Z"/><path d="M223.44,354.79c5.61,10.64,13.45,19.7,20.77,29.11,12,15.38,12.21,20.44,1.22,36.11-4.59,6.55-9.12,13.14-13.74,19.67s-8.92,7.1-14.37,1.68c-10-10-19.79-20.2-29.74-30.26-4.68-4.74-5.16-10-3.2-16.18,2.35-7.34,6.81-13.19,11.79-18.78,6.38-7.15,12.84-14.23,19.26-21.35Z"/><path class="cls-11" d="M396.47,592c-4,7.15-8.16,14.25-12.07,21.48-2.57,4.76-5.31,4.73-8.33.65-7.76-10.48-15.55-20.94-23.08-31.58-2.57-3.63-1.89-7.68.69-11.21,6.77-9.23,13.67-18.37,20.42-27.61,3.18-4.36,5.16-1.52,7.42.93,5.4,5.83,8.68,13.37,15,18.49Z"/><path class="cls-11" d="M396.47,436.54v62.51c-4.82,7.61-9.17,8.33-14.76,1.49-8-9.74-13.6-21.05-19.74-32-2.45-4.34-.55-8.86,1.62-13,3.61-6.86,8-13.26,12.11-19.82C383.13,423.93,389.79,424.24,396.47,436.54Z"/><path d="M396.47,436.54c-12-10.17-10.69-9.15-20.34,3-13.18,16.58-15,31.49-.29,47.54,2.65,2.89,4.11,6.83,6.49,10,5.92,7.95,6.59,8,14.14,2v17.63c-5.07,5.63-10.26,4.58-15.19,0a33.44,33.44,0,0,1-6.64-7.88c-7.76-14.17-14.19-29-22.79-42.78-2.27-3.61-.68-7,1.32-10.37a337.84,337.84,0,0,1,24-35.63c7.45-9.56,9.46-9.9,19.31-2.69Z"/><path class="cls-12" d="M396.47,701,366.11,701c-10.77-6.33-12.94-14.33-6.32-24.59A151.61,151.61,0,0,1,372.55,659c5.88-6.76,9.05-6.86,16-.9A32.86,32.86,0,0,1,396.47,669Z"/><path d="M50.41,418.91c12.17,13.4,21.39,29,32.1,43.47,1.91,2.58,2.3,5.47.4,8.18-10.16,14.55-18,30.76-30.49,43.64a6.35,6.35,0,0,1-2,.88V495.84c2.51-8.07,8.21-14.19,13-20.78,3.69-5,3.87-9.18.17-14.39-5-7.08-10.75-13.88-13.2-22.53Z"/><path d="M196.21,354.79a386.67,386.67,0,0,1-28.33,34.48c-5.93,6.41-8.56,6.12-14.13-.28-7-8-14.19-15.86-21-24-2.43-2.92-5.62-5.72-5.46-10.16h14.42c3.63,1.84,6.15,4.86,8.69,7.93,7.33,8.87,9.39,8.93,17.05.14,2.79-3.21,5.47-6.4,9.51-8.07Z"/><path d="M305.15,354.79c-8,12.85-12.43,27.56-21.08,40.08-5.56,8-9,8.86-16.51,2.32s-14.7-14-19.74-22.84c-3.94-6.87-10.52-11.88-13.16-19.56h12.81c4.12,1.71,6.84,4.77,9.06,8.59,3.35,5.76,7,11.34,12,15.92,5.35,4.94,6.86,4.73,9.65-1.8,2.31-5.4,4.58-10.79,7.09-16.1,1.28-2.71,2.7-5.19,5.48-6.61Z"/><path class="cls-13" d="M396.47,669c-4.08-3.75-8.11-7.55-12.25-11.24-2.72-2.41-5.33-3.18-7.93.48-4.73,6.68-9.5,13.34-14.58,19.74-7.57,9.54-.52,16,4.4,23l-15-.13c-9.88-10.87-5.29-20.49,2.25-30.21a150.61,150.61,0,0,1,20.17-21.37c8.46-7.39,10.38-7.23,18.44.82,1.49,1.5,3,3,4.5,4.46Z"/><path class="cls-12" d="M290.73,354.79c-3.81,9-7.75,17.95-11.38,27-2.44,6.12-5.48,5.94-10,2.05-9.48-8.09-14.35-19.55-21.84-29.08Z"/><path class="cls-14" d="M50.41,545.53c8.3,8.43,13.64,18.87,19.52,28.93,1.54,2.66,2.26,5.68.44,8.31-6.84,9.9-11.92,21-20,30.08v-24c2.83-7.48,4.67-15,0-22.44Z"/><path class="cls-14" d="M396.47,385.25c-7.72,8-12.14,8.26-19.8.24-9.13-9.57-17.86-19.53-25.06-30.7H366c5.32,2.26,8.2,7.25,12.18,11,6.33,6,6.93,6,13.12-.35,1.4-1.42,2.49-3.59,5.14-2.63Z"/><path class="cls-12" d="M50.41,438.14c6.87,7.73,11.87,16.8,17.9,25.13,1.91,2.62,2.5,5.15.54,8C63,479.7,57.68,488.49,50.41,495.84Z"/><path class="cls-14" d="M67,700.81c-4-.21-8.12,1.4-11.79-1.33a4.17,4.17,0,0,1-.64-4.5c4.47-9.18.5-16.84-4.15-24.43V656.13a55.83,55.83,0,0,1,20,25.07C73.48,688.62,69.86,694.58,67,700.81Z"/><path class="cls-12" d="M177,354.79c-4.23,5-8.6,9.92-12.63,15.1-3.55,4.54-7,3.77-10.52.33-4.68-4.61-9.21-9.39-12.1-15.43Z"/><path class="cls-12" d="M396.47,362.81c-10.57,14.76-10.15,15.87-25-.29-2.11-2.3-3.62-5.14-5.41-7.73,7.47,0,15,.56,22.41-.16C395.29,354,397.91,356,396.47,362.81Z"/><path class="cls-14" d="M66.44,354.79c-5.84,9.35-9.25,20-16,28.85V354.79Z"/><path class="cls-15" d="M50.41,670.55c11.18,8.94,11.66,11.89,4.79,28.93L50.41,701Z"/><path class="cls-16" d="M50.41,566.37c8.28,8.22,8.28,10.94,0,22.44Z"/><path d="M205.7,456.87a34.42,34.42,0,0,1-1.55,3.35c-11.65,19.68-22.91,39.58-38,57-4.91,5.66-8.22,5.16-12.64-.19-10.29-12.42-16.18-27.41-24.58-40.84s-5-24.19,2.67-35.5c6.87-10.11,13.59-20.34,20.66-30.33,4.92-6.94,9.58-8.08,15.26-2.62a227.38,227.38,0,0,1,36.58,45.11A27.27,27.27,0,0,1,205.7,456.87Z"/><path d="M134.65,634.49a19.36,19.36,0,0,1-3.68,9.78c-7,10.4-13.75,20.92-20.81,31.26-9.49,13.86-16.22,14.35-27.85,2.31-7.89-8.17-12-18.86-18.52-27.93-11.94-16.58-11.91-18.77-1.2-36.08a202.61,202.61,0,0,1,23.8-31.07c5.27-5.7,11.23-7.21,16.67-1.74a127.16,127.16,0,0,1,31.27,51.3A11.86,11.86,0,0,1,134.65,634.49Z"/><path d="M316.77,463.5c-.21,1.15-.12,2.92-.83,4.25-8.37,15.7-15.8,32-28.23,45.17-6.47,6.82-10.34,7-16.68.05-12.58-13.88-21.43-30.39-31.14-46.26-2-3.28-.92-7.21.89-10.72,7.74-15.08,18.15-28.13,30-40.13,3.1-3.15,6.2-3.63,9.67-.35,8.92,8.4,18.6,16,26.66,25.28C312.62,447.16,316.38,454.4,316.77,463.5Z"/><path d="M302,582a15.68,15.68,0,0,1-2.76,7.76c-7.27,12.07-14.43,24.21-21.89,36.16-5.26,8.42-9.24,9-16.54,2.6-13.18-11.66-21.53-27-30.44-41.76-2.55-4.22-1.44-9.46,1.38-13.71,9.15-13.79,19.89-26.34,30.76-38.75,2.62-3,5.92-5,9.55-1.17a137.84,137.84,0,0,1,29.36,46.11A14.88,14.88,0,0,1,302,582Z"/><path d="M326.05,688.32c-5.79-.23-9.56-2.82-12.8-6-11.7-11.47-20.42-25.27-29.5-38.75-3.07-4.56-1.15-9.38,1.44-13.54,7.93-12.71,17.55-24.19,27.28-35.49,6.2-7.19,11-7,18.79-.93,14,10.88,20.77,26.74,28.43,42,1.07,2.12.6,4.12-.56,6-7.82,13-15.5,26.11-23.58,39C333.23,684.28,330.52,688.32,326.05,688.32Z"/><path d="M160.79,632.32c-3.62.34-6.44-1.74-8.92-4.2-13.79-13.63-23.54-30.2-33.49-46.59-2.77-4.57-.53-8.69,2.37-12.47,6.22-8.1,14.15-14.49,21.3-21.66,5.08-5.1,10.16-10.2,15.14-15.39,2.54-2.64,5-4,8.09-.83,13,13.72,26.48,27.13,31.5,46.4.81,3.11,1.11,5.55-.61,8.24-8.59,13.46-17,27-25.76,40.39C168.3,629.45,166,633.12,160.79,632.32Z"/><path d="M357.25,523.56a18.63,18.63,0,0,1-.68,3.81c-7.09,16.28-17.6,30.25-29.7,43-2.5,2.64-5.58,1.88-8.44-.76C307.92,560,299.34,549.12,293.38,536c-3-6.59-2.61-12.27.79-18.09,8.09-13.86,18.46-26,28.84-38.16,2.76-3.24,6.46-4.83,9.66-1.44C344.94,491.34,351.72,507.44,357.25,523.56Z"/><path d="M62.84,527.48a17.09,17.09,0,0,1,1.06-4.3c7.68-14.63,15.55-29.19,26.95-41.35,6.56-7,11-6.93,17.13.6,10.17,12.4,15.09,27.34,19.17,42.57.6,2.24-.28,4.26-1.4,6.07-7.16,11.52-14,23.3-23.13,33.43-6.08,6.74-10.79,7.06-17,1.08-9.75-9.35-15.54-21.48-22.09-33C62.8,531.26,63.07,529.41,62.84,527.48Z"/><path d="M221,595c1.88.08,2.72,1.54,3.67,2.8,8.66,11.49,17,23.22,26.7,33.9,3.09,3.4,3.3,7.15.8,11q-12.3,18.66-24.68,37.28c-1.64,2.47-3.36,4-6.34,1.34-11.41-10-24.24-18.36-34.86-29.31-7.45-7.67-7.39-13.59-.69-21.72,9.34-11.32,18.54-22.76,30-32C217.26,596.94,218.63,595.13,221,595Z"/><path class="cls-14" d="M187.14,523.77a32.71,32.71,0,0,1,4.15-12.24,124.93,124.93,0,0,1,19.32-25.31c6.55-6.76,10.33-6.65,16.75-.1,8.25,8.41,14.57,18.26,20.9,28.12a8.69,8.69,0,0,1,.42,9.67,227.86,227.86,0,0,1-29,41.92c-2.26,2.55-4.26,4.61-7.62.89-10.87-12-16.47-27.2-24.52-40.9A6,6,0,0,1,187.14,523.77Z"/><path d="M196.61,700.84c-6-.43-12.29,1.75-18.1-1.48a3.54,3.54,0,0,1,0-3.8c5.75-8.46,1.88-15-4-21.3-3.27-3.5-5.89-7.56-9.38-10.88-4-3.79-7.55-4.46-11.24.55-4.75,6.42-9.13,13.1-13.68,19.66a9.72,9.72,0,0,0-1.06,9.15c.74,2.16,2.49,4.26.92,6.76-4.68,2.9-9.8,1-14.7,1.36-8-12.72-2.19-22.47,6.56-31.86,7.45-8,14.53-16.35,21.69-24.61,4.25-4.92,8.38-5,12.68-.14,10.62,12,21,24.11,31.94,35.82C205.65,688,199.71,694.14,196.61,700.84Z"/><path d="M247.59,700.94l-14.78-.09c-2.62-6.23-.92-11.74,2.4-17.24,8.1-13.38,18.74-24.4,30.76-34.22,2.7-2.21,5.24-3.55,8.21-.31,9.52,10.37,19.73,20.11,27.82,31.74,4.29,6.16,7,12.51,3.6,20-4.46-.33-9.17,1.58-13.34-1.45-1.13-15.44-14.66-21.64-23.45-31.34-2.16-2.39-4.42-.92-5.76,1.46a146.11,146.11,0,0,1-14.58,20.79C245.58,693.82,248.81,697.49,247.59,700.94Z"/><path class="cls-12" d="M140.13,699.5c-6.8-10.13-6.78-10.66.55-21.09,4.29-6.1,8.57-12.19,12.77-18.35,2.77-4.06,6-5.28,9.88-1.7,7.5,6.85,14.39,14.26,19.66,23,4.43,7.33-1.08,12.47-4.48,18A98,98,0,0,1,140.13,699.5Z"/><path class="cls-12" d="M247.59,700.94c-5.31-4.7-4.5-8.92.08-14a82.94,82.94,0,0,0,13.86-20.25c2.2-4.67,4.79-5.17,8.4-1.5q10.33,10.46,20.78,20.81c4.1,4.07,5.07,8.43,1.55,13.35-7.6,3.25-15.58,1.14-23.37,1.52C261.81,701.25,254.69,701,247.59,700.94Z"/><path class="cls-12" d="M353,401.22c-1.27,6.2-4.54,11.44-7.31,16.87-1.32,2.6-3.16,5-4.35,7.62-5.81,13-11.09,11.24-19.27.74-2.61-3.36-4.33-7.52-7.28-10.48-8.43-8.44-8.13-16.86-1.68-26.28,3.59-5.24,6.22-11.14,9.25-16.77,1.42-2.62,3.26-4.74,6.22-2.34,9.55,7.75,18.17,16.37,23.69,27.6A14.34,14.34,0,0,1,353,401.22Z"/><path class="cls-11" d="M94,364.32c2,1.37,4,2.3,5.46,3.75,8.23,8.17,13.76,18.19,19,28.41,1.09,2.14.6,4.08-.56,6q-7.35,12.35-14.64,24.73c-2.68,4.57-6.29,4.73-9.92,1.65-8.62-7.31-14.49-16.92-20.91-26-1.42-2-.93-4.12.21-6,5.84-9.82,11.69-19.65,17.68-29.38C91.06,366.2,92.61,365.46,94,364.32Z"/><path class="cls-12" d="M198,399.05c2.64-9.93,10.3-19.27,19.57-27.46,2.37-2.09,4.47,0,6.07,1.9,6.94,8.15,12.82,17,16.69,27,2.35,6.1-.18,11.12-3.54,16.32-11.83,18.34-12.33,18.62-27.56,2.83C204.28,414.51,196.84,410.61,198,399.05Z"/><path class="cls-11" d="M137,464.19c-.23-3.86,1.57-6.55,3.23-9.28,5.11-8.43,10.4-16.74,15.29-25.29,2.65-4.64,5.3-5.82,9.07-1.47,7.14,8.26,14.38,16.43,21.27,24.89,3,3.74,3.81,8.35,1,12.69-6.48,10.07-13,20.1-20.75,29.33-4.23,5.07-7.56,4.61-11.38-.47a239.58,239.58,0,0,1-15.77-24C137.76,468.5,136.57,466.33,137,464.19Z"/><path class="cls-11" d="M120.88,629.61A32.29,32.29,0,0,1,116,643c-3.38,5.41-7,10.63-10.77,15.8C99,667.43,96.61,667.93,89.3,660c-7-7.6-13-16.13-19.32-24.3-2.23-2.87-2-6-.21-9,5.32-9.2,10.58-18.44,16-27.55,2.94-4.9,6.55-6.45,11.55-2.06,8.27,7.25,15.77,15.07,20.68,25A74.21,74.21,0,0,1,120.88,629.61Z"/><path class="cls-11" d="M255.24,462c.24-8.33,5.22-14.19,9.09-20.48,10.69-17.39,8.52-16.43,21.32-3,22.19,23.35,19.23,18.74,5.7,43.6-2.29,4.21-4.75,8.34-7.23,12.44-1.93,3.2-4.51,3.85-7.1.9a163.58,163.58,0,0,1-20.83-29.19C255.47,465,255.5,463.25,255.24,462Z"/><path class="cls-12" d="M284.73,578.7c-1.74,8.37-6.11,14.17-9.85,20.2-10,16.18-10.12,16.12-20.84.45-11.34-16.58-11.32-16.57-.33-33.58,2.59-4,4.9-8.21,7.56-12.17.92-1.39,2.37-3.86,4.34-1.91A100.36,100.36,0,0,1,284.73,578.7Z"/><path class="cls-12" d="M346.9,639.08c-.93,1.68-1.76,3.33-2.7,4.9-5.09,8.44-10.29,16.8-15.26,25.3-2.85,4.87-6.08,6-9.88,1.38-7.27-8.83-14.32-17.82-21.44-26.76-2.12-2.66-1.94-5.39,0-8.08,7.27-10.16,15-20,20.95-31.05,1.47-2.74,3.47-3.25,5.44-.36q10.78,15.83,21.5,31.68A20.9,20.9,0,0,1,346.9,639.08Z"/><path class="cls-11" d="M185.24,577.3c-1.1,2.64-1.77,5.28-3.18,7.44-5.83,8.88-11.93,17.58-17.85,26.4-2.58,3.84-5.25,4.08-8.27.59Q144.46,598.47,133,585.2c-3.07-3.56-3-7.23.09-10.77q12-13.87,24-27.71c1.83-2.1,4.31-4.14,6.86-1.94C174.06,553.52,179.66,565.26,185.24,577.3Z"/><path class="cls-12" d="M346.76,524.2c-5.18,10.63-10.18,21.54-19.73,29.34-3.71,3-7.16.81-9.88-1.95-6.6-6.69-11.39-14.7-16-22.8-1.69-3-.44-5.71,1.35-8.17,6.57-9,13.23-18,19.78-27.06,2.55-3.53,5-4.6,8.05-.54a105.67,105.67,0,0,1,15.36,27.85C346,521.86,346.34,522.88,346.76,524.2Z"/><path class="cls-11" d="M118.2,527.66c.13,3.07-1.44,5.28-3.09,7.37C110,541.51,105,548,99.27,554c-4.77,5-8.76,4.21-12.63-.43-6-7.23-8.8-16.33-13.41-24.38-1-1.68-.11-3.6,1-5.26,6.06-9.37,11.48-19.14,18.35-28,3.83-4.93,6.94-5.1,10,.51,4.45,8.18,9,16.31,13.3,24.54A46.92,46.92,0,0,1,118.2,527.66Z"/><path class="cls-12" d="M240.85,641.65c-3.65,8.24-9,17.67-17.63,24.62-3,2.38-6.18-.36-8.52-2.4-4-3.48-7.68-7.35-11.45-11.1C190.53,640.11,190.5,639.9,201,625c2.29-3.25,4.85-6.31,7.31-9.44,6.46-8.24,8.87-8.41,16.24-.65A108.34,108.34,0,0,1,238.88,633,11.24,11.24,0,0,1,240.85,641.65Z"/><path class="cls-12" d="M216.42,552c-2.73-.21-4.13-2.24-5.47-4.21-3-4.4-5.37-9.35-8.93-13.21-7.61-8.26-6.16-16.14-.35-24.34,3.53-5,7-10.07,10.57-15,3.28-4.47,6.77-5.69,10.82-.58,6.47,8.17,11.69,17.1,16.82,26.12,1.77,3.12.78,5.72-1.16,8.06-5.76,7-11.67,13.81-17.5,20.71A6.09,6.09,0,0,1,216.42,552Z"/></g><path class="cls-8" d="M180.31,544c-1.58-19.66-13.32-34.75-26.22-33.71S132,528.1,133.61,547.76s13.32,34.74,26.22,33.7S181.9,563.65,180.31,544Z"/><path class="cls-7" d="M165.9,542.21c-1.37-12.25-9-21.45-17-20.55s-13.43,11.56-12.06,23.81,9,21.44,17,20.54S167.27,554.45,165.9,542.21Z"/><path class="cls-17" d="M154.46,535.85c1.29-4.62-.12-9.05-3.15-9.89s-6.53,2.21-7.81,6.83.12,9.05,3.15,9.89S153.18,540.47,154.46,535.85Z"/><g class="cls-3"><path d="M156.14,639.31c0-2.35-1.52-4.25-3.39-4.25s-3.4,1.9-3.4,4.25,1.52,4.25,3.4,4.25S156.14,641.65,156.14,639.31Z"/><path d="M131.33,630.47c0-2.35-1.53-4.25-3.4-4.25s-3.4,1.9-3.4,4.25,1.52,4.25,3.4,4.25S131.33,632.81,131.33,630.47Z"/><path d="M114,614.49c0-2.35-1.53-4.25-3.4-4.25s-3.4,1.9-3.4,4.25,1.52,4.25,3.4,4.25S114,616.83,114,614.49Z"/><path d="M98.35,590.35c0-2.35-1.53-4.25-3.4-4.25s-3.4,1.9-3.4,4.25,1.52,4.25,3.4,4.25S98.35,592.7,98.35,590.35Z"/><path d="M90.19,560.77c0-2.35-1.52-4.25-3.4-4.25s-3.4,1.9-3.4,4.25,1.52,4.25,3.4,4.25S90.19,563.12,90.19,560.77Z"/><path d="M91.21,529.83c0-2.34-1.52-4.25-3.4-4.25s-3.4,1.91-3.4,4.25,1.52,4.25,3.4,4.25S91.21,532.18,91.21,529.83Z"/><path d="M99,503c0-2.34-1.53-4.25-3.4-4.25s-3.4,1.91-3.4,4.25,1.52,4.25,3.4,4.25S99,505.32,99,503Z"/><path d="M113.65,477.65c0-2.35-1.52-4.25-3.4-4.25s-3.4,1.9-3.4,4.25,1.52,4.25,3.4,4.25S113.65,480,113.65,477.65Z"/><path d="M137.79,462.69c0-2.35-1.53-4.25-3.4-4.25s-3.4,1.9-3.4,4.25,1.52,4.25,3.4,4.25S137.79,465,137.79,462.69Z"/><path d="M173.82,456.91c0-2.35-1.52-4.25-3.4-4.25s-3.4,1.9-3.4,4.25,1.53,4.24,3.4,4.24S173.82,459.25,173.82,456.91Z"/><path d="M197.62,471.19c0-2.35-1.52-4.26-3.4-4.26s-3.4,1.91-3.4,4.26,1.52,4.24,3.4,4.24S197.62,473.53,197.62,471.19Z"/><path d="M216.32,493.62c0-2.34-1.52-4.25-3.4-4.25s-3.4,1.91-3.4,4.25,1.52,4.25,3.4,4.25S216.32,496,216.32,493.62Z"/><path d="M230.94,518.44c0-2.35-1.52-4.25-3.4-4.25s-3.4,1.9-3.4,4.25,1.52,4.25,3.4,4.25S230.94,520.79,230.94,518.44Z"/><path d="M235.7,546.66c0-2.35-1.53-4.25-3.4-4.25s-3.4,1.9-3.4,4.25,1.52,4.25,3.4,4.25S235.7,549,235.7,546.66Z"/><path d="M233.32,577.26c0-2.35-1.52-4.25-3.4-4.25s-3.4,1.9-3.4,4.25,1.52,4.25,3.4,4.25S233.32,579.61,233.32,577.26Z"/><path d="M221.76,606.5c0-2.35-1.52-4.25-3.4-4.25s-3.4,1.9-3.4,4.25,1.52,4.25,3.4,4.25S221.76,608.84,221.76,606.5Z"/><path d="M204.76,625.54c0-2.35-1.52-4.26-3.4-4.26s-3.4,1.91-3.4,4.26,1.52,4.24,3.4,4.24S204.76,627.88,204.76,625.54Z"/><path d="M180.28,637.77c0-2.34-1.52-4.25-3.4-4.25s-3.4,1.91-3.4,4.25S175,642,176.88,642,180.28,640.12,180.28,637.77Z"/></g><path class="cls-7" d="M155.14,639.31c0-2.35-1.52-4.25-3.39-4.25s-3.4,1.9-3.4,4.25,1.52,4.25,3.4,4.25S155.14,641.65,155.14,639.31Z"/><path class="cls-7" d="M130.33,630.47c0-2.35-1.53-4.25-3.4-4.25s-3.4,1.9-3.4,4.25,1.52,4.25,3.4,4.25S130.33,632.81,130.33,630.47Z"/><path class="cls-7" d="M113,614.49c0-2.35-1.53-4.25-3.4-4.25s-3.4,1.9-3.4,4.25,1.52,4.25,3.4,4.25S113,616.83,113,614.49Z"/><path class="cls-7" d="M97.35,590.35c0-2.35-1.53-4.25-3.4-4.25s-3.4,1.9-3.4,4.25,1.52,4.25,3.4,4.25S97.35,592.7,97.35,590.35Z"/><path class="cls-7" d="M89.19,560.77c0-2.35-1.52-4.25-3.4-4.25s-3.4,1.9-3.4,4.25,1.52,4.25,3.4,4.25S89.19,563.12,89.19,560.77Z"/><path class="cls-7" d="M90.21,529.83c0-2.34-1.52-4.25-3.4-4.25s-3.4,1.91-3.4,4.25,1.52,4.25,3.4,4.25S90.21,532.18,90.21,529.83Z"/><path class="cls-7" d="M98,503c0-2.34-1.53-4.25-3.4-4.25s-3.4,1.91-3.4,4.25,1.52,4.25,3.4,4.25S98,505.32,98,503Z"/><path class="cls-7" d="M112.65,477.65c0-2.35-1.52-4.25-3.4-4.25s-3.4,1.9-3.4,4.25,1.52,4.25,3.4,4.25S112.65,480,112.65,477.65Z"/><path class="cls-7" d="M136.79,462.69c0-2.35-1.53-4.25-3.4-4.25s-3.4,1.9-3.4,4.25,1.52,4.25,3.4,4.25S136.79,465,136.79,462.69Z"/><path class="cls-7" d="M172.82,456.91c0-2.35-1.52-4.25-3.4-4.25s-3.4,1.9-3.4,4.25,1.53,4.24,3.4,4.24S172.82,459.25,172.82,456.91Z"/><path class="cls-7" d="M196.62,471.19c0-2.35-1.52-4.26-3.4-4.26s-3.4,1.91-3.4,4.26,1.52,4.24,3.4,4.24S196.62,473.53,196.62,471.19Z"/><path class="cls-7" d="M215.32,493.62c0-2.34-1.52-4.25-3.4-4.25s-3.4,1.91-3.4,4.25,1.52,4.25,3.4,4.25S215.32,496,215.32,493.62Z"/><path class="cls-7" d="M229.94,518.44c0-2.35-1.52-4.25-3.4-4.25s-3.4,1.9-3.4,4.25,1.52,4.25,3.4,4.25S229.94,520.79,229.94,518.44Z"/><path class="cls-7" d="M234.7,546.66c0-2.35-1.53-4.25-3.4-4.25s-3.4,1.9-3.4,4.25,1.52,4.25,3.4,4.25S234.7,549,234.7,546.66Z"/><path class="cls-7" d="M232.32,577.26c0-2.35-1.52-4.25-3.4-4.25s-3.4,1.9-3.4,4.25,1.52,4.25,3.4,4.25S232.32,579.61,232.32,577.26Z"/><path class="cls-7" d="M220.76,606.5c0-2.35-1.52-4.25-3.4-4.25s-3.4,1.9-3.4,4.25,1.52,4.25,3.4,4.25S220.76,608.84,220.76,606.5Z"/><path class="cls-7" d="M203.76,625.54c0-2.35-1.52-4.26-3.4-4.26s-3.4,1.91-3.4,4.26,1.52,4.24,3.4,4.24S203.76,627.88,203.76,625.54Z"/><path class="cls-7" d="M179.28,637.77c0-2.34-1.52-4.25-3.4-4.25s-3.4,1.91-3.4,4.25S174,642,175.88,642,179.28,640.12,179.28,637.77Z"/></g></g></svg>