<svg xmlns="http://www.w3.org/2000/svg" viewBox="0 0 600 1000"><defs><style>.cls-1{isolation:isolate;}.cls-2{opacity:0.7;mix-blend-mode:multiply;}.cls-3,.cls-4{font-size:10.58px;font-family:LEMONMILK-Bold, LEMON MILK;font-weight:700;}.cls-4{fill:#fff;}.cls-5{fill:#91afb0;}.cls-6{fill:#e5ebeb;}.cls-7{fill:#c66f6b;}.cls-8{fill:#843025;}.cls-9{fill:#963731;}.cls-10{fill:#661410;}</style></defs><g class="cls-1"><g id="Layer_1" data-name="Layer 1"><g class="cls-2"><text class="cls-3" transform="translate(276.16 149.93)">+2</text></g><text class="cls-4" transform="translate(275.16 149.93)">+2</text><path class="cls-5" d="M466.2,539.81l-.85-.17-.91-.17L488.27,353,462.89,539.18l-2.74-.5,25-197.51a45.34,45.34,0,0,1,9.66,4.77c6.77,4.73,6.77,10.85,2.93,35.18l-25.4,160.54C470.6,541.2,468,540.17,466.2,539.81Z"/><path class="cls-6" d="M465.35,539.64l-.91-.17L488.27,353,462.89,539.18l-2.74-.5,25-197.51c2.13,1.27,4,2.25,5.69,3.13L466.2,539.81Z"/><path class="cls-5" d="M490.87,344.3c8.22,4.4,10.6,6.61,6.75,30.94L471.54,541c-1.76-.46-3.55-.86-5.34-1.22Z"/><path class="cls-6" d="M488.27,353,464.44,539.47l-1.55-.29Z"/><path class="cls-7" d="M463.28,562.92l-5.26-.63a1.24,1.24,0,0,1-1.08-1.43l.56-3.58a1.27,1.27,0,0,1,1.4-1.06l5.15.61Z"/><path class="cls-7" d="M464.32,554.71l-5-.59a1.24,1.24,0,0,1-1.08-1.43l.58-3.69a1.15,1.15,0,0,1,1.28-1l5,.59Z"/><path class="cls-7" d="M459.92,589.54a12.25,12.25,0,0,1-3.91-2c-2.75-2.31-1.94-8.94-1.53-11.07h0l.42-2.62a1.54,1.54,0,0,1,1.7-1.29l5.4.64Z"/><path class="cls-7" d="M462.24,571.12l-5.51-.65a1.26,1.26,0,0,1-1.09-1.44l.57-3.58a1.25,1.25,0,0,1,1.4-1.05l5.4.64Z"/><polygon class="cls-8" points="464.05 556.83 458.9 556.22 459.24 554.11 464.31 554.71 464.05 556.83"/><polygon class="cls-8" points="463.01 565.04 457.61 564.4 457.94 562.28 463.28 562.92 463.01 565.04"/><polygon class="cls-8" points="461.98 573.24 456.32 572.57 456.65 570.46 462.24 571.12 461.98 573.24"/><polygon class="cls-8" points="465.08 548.63 460.19 548.05 460.53 545.94 465.35 546.51 465.08 548.63"/><path class="cls-9" d="M463,565l3.53.42a1.08,1.08,0,0,1,.95,1.25l-.41,2.64a10.55,10.55,0,0,0-.12,1.13,1.1,1.1,0,0,1-1.23,1l-3.49-.41Z"/><path class="cls-9" d="M473.41,589.74a15.81,15.81,0,0,1-5.76,1,24.47,24.47,0,0,1-7.73-1.2l2.06-16.3,4.4.52a1.7,1.7,0,0,1,1.35,1.08,10,10,0,0,0,2.27,3.39c2,2,4.37,4.36,5.4,6.49S476.21,588.62,473.41,589.74Z"/><path class="cls-9" d="M464.05,556.83l3.79.45a1.09,1.09,0,0,1,.94,1.26l-.61,3.88a1.1,1.1,0,0,1-1.22.93l-3.67-.43Z"/><path class="cls-9" d="M465.08,548.63l4.05.48a1.1,1.1,0,0,1,.95,1.25l-.2,1.23v.08l-.41,2.58a1.1,1.1,0,0,1-1.22.93l-3.92-.47Z"/><path class="cls-7" d="M466.26,546.64l-7-.85a1.75,1.75,0,0,1-1.52-2l.83-5.18a1.62,1.62,0,0,1,1.8-1.35l7,.85Z"/><path class="cls-9" d="M467.36,538.09l5.69.69a1.55,1.55,0,0,1,1.33,1.77l-.28,1.72,0,.12L473.5,546a1.56,1.56,0,0,1-1.73,1.29l-5.51-.67Z"/><path class="cls-10" d="M465.36,546.52l4.58.54c.21.08-.31,2.11-.31,2.11l-4.54-.53Z"/><path class="cls-10" d="M462.24,571.12l3.94.47a10.29,10.29,0,0,0,.41,2.2l-4.61-.55Z"/><polygon class="cls-10" points="463.28 562.92 467.21 563.38 466.87 565.5 463.01 565.04 463.28 562.92"/><polygon class="cls-10" points="464.31 554.71 468.5 555.21 468.16 557.32 464.05 556.83 464.31 554.71"/><path class="cls-10" d="M462.24,571.12l3.66.43a10.69,10.69,0,0,0,.41,2.2l-4.33-.51Z"/><polygon class="cls-10" points="463.28 562.92 466.93 563.35 466.59 565.46 463.01 565.04 463.28 562.92"/><polygon class="cls-10" points="469.49 547.15 469.18 549.12 465.08 548.63 469.49 547.15"/><polygon class="cls-10" points="464.31 554.71 468.22 555.18 467.88 557.29 464.05 556.83 464.31 554.71"/><path d="M465.71,550.63c.81-1.06,3.07-6.44,0-6.44-2.54,0-5.71,1.62-8.31,3.36a39.8,39.8,0,0,0-3.3,2.47c.8,1,3.11,5.11,7.71,4.43C463.24,554.25,465.6,550.77,465.71,550.63Z"/><path d="M471.89,566.38a3.43,3.43,0,0,1-.58,1.84,1,1,0,0,0-.09.21,5.2,5.2,0,0,1-.74,2,.84.84,0,0,1-.49.47,4.8,4.8,0,0,1-2.23.16c-1.68-.09-2.21-1-2.25-2.65l-.05-1.71v0a2.28,2.28,0,0,1,1.34-2.12,5.16,5.16,0,0,1,3.27-.56,2.08,2.08,0,0,1,1.64,1.56h0Z"/><path d="M472.53,561.25c.55-1.21.18-2.24.24-3.84-.07-2.19.13-3.23-.18-3.63-1.38-1.57-4.83-1-5.23-.45s-.43,1.4-.69,3a7,7,0,0,0-.27,2.35,2.66,2.66,0,0,0,2.63,2.09c1.53,0,2.68.38,2.73,1.19Z"/><path d="M467.47,576.27a23.77,23.77,0,0,0,1.15-2.1,2.88,2.88,0,0,0,.31-1.13,6,6,0,0,0-2.51-1c-.74-.15-1-.11-1.32.61a8.19,8.19,0,0,0-.39.85l-.38,1.17a1.71,1.71,0,0,0,1.18,2.34,8.82,8.82,0,0,0,1,.36A5.27,5.27,0,0,0,467.47,576.27Z"/></g></g></svg>