<svg xmlns="http://www.w3.org/2000/svg" viewBox="0 0 600 1000"><defs><style>.cls-1{isolation:isolate;}.cls-2{opacity:0.75;mix-blend-mode:multiply;}.cls-3{fill:#f9f9f9;}.cls-4{fill:#bdb8b9;}.cls-5{fill:#bcbbba;}.cls-6{fill:#f9f8f8;}.cls-7{fill:#050708;}.cls-8{fill:#0c0e0f;}.cls-9{fill:#51b787;}.cls-10{fill:#ecefef;}.cls-11{fill:#41916c;}.cls-12{fill:#050607;}.cls-13{fill:#f0f1f0;}.cls-14{fill:#040405;}</style></defs><g class="cls-1"><g id="Layer_1" data-name="Layer 1"><g class="cls-2"><circle cx="352.09" cy="446.02" r="48.44"/><ellipse cx="255.6" cy="451.86" rx="36.21" ry="34.09"/><path d="M399.91,467l-.37-6.47c-6.53-.28-7.62,5.67-10.62,9.36-5.16,6.34-10.34,12.55-19.29,13.39-13.33,4.87-26.3,3.06-39.11-2-7.17-1.34-10.64-6.88-14.64-12.17-2.2-2.91-4.36-9.53-10.12-3.39,4.19,28.22,31.58,44,60,34.7C381.37,493.57,393.54,483.26,399.91,467Z"/><path d="M289.45,468.77l-.39-5.67c-5.23-1-7.23,3.44-10.12,6.24-14.26,13.8-30.24,13.79-44.53.22-3.19-3-5.43-9.51-12-5.05.91,21.95,19.06,33,44.1,26.76C276.37,486,284.62,479.14,289.45,468.77Z"/><path d="M304.78,439.61c.13,8.19-1.34,16.56,2.61,24.35,7.74,7,9.4,20.68,23.15,21.09.51-6.75-4.73-11.07-7-16.64-6.08-14.78-1.59-33,10.29-41.39,12.89-9.14,27.73-8.14,39.16,2.66,11.26,10.63,13.2,27.69,5,42.18-2.4,4.25-7.31,7.49-5.9,13.45,17.17.65,19.31-15.37,27.44-24.75,4.93-27.81-8.94-51.5-34.09-58.25-25.79-6.92-48.05,5.89-58.32,33.5A22.53,22.53,0,0,1,304.78,439.61Z"/><path d="M221.58,448.87q1,7.13,2,14.25c7.93,8.17,14,18.28,27.18,20,17.87,2.37,29.06-6.58,38.25-20,2.62-21.22-6.66-36.93-24.65-41.71S231.84,426.06,221.58,448.87Z"/><path d="M372.1,485.31c19.83-19.61,21.11-44.35,3.11-60.26a35.66,35.66,0,0,0-46.39-.45c-13.88,11.78-17.56,33.09-8,48.72,2.63,4.29,6.46,7.84,9.74,11.73C344.35,492.1,358.2,493,372.1,485.31Z"/><path d="M277.8,456.29c-.5-12.61-11.07-22.45-23.2-21.58-11.54.83-20.21,11-19.84,23.26.36,12.12,10,21.87,21.52,21.77C268.14,479.63,278.28,468.58,277.8,456.29Z"/><path d="M366.09,469.9c10.56-6.91,7.65-17.26,4.5-25.68-3.78-10.1-13.24-13.05-23.88-10.93a5.73,5.73,0,0,0,0,6.13,12.73,12.73,0,0,0,3.84,2.42c4.77,2,9.79,4,9.83,10.27,0,4.32-3.59,5.73-7,7-6.27,2.29-10.91.37-14.12-5.37a22.72,22.72,0,0,0-1.78-2.5c-2.1-2.22-4.46-3.81-7.73-3.1,1.87,24.1,12.87,34.55,24.9,30.92,3.6-1.09,6.51-2.33,8-5.89-2.36-2.9-5.34-2.21-8.35-1.56C358.12,470.58,361.84,468.55,366.09,469.9Z"/><path d="M348.08,439.45c-.45-2.05-.91-4.11-1.36-6.16-5.09-3.91-10.55-5.89-16-1.21s-4,10.47-1,16l6.24,3.43C346.51,454.08,350,449.43,348.08,439.45Z"/><path d="M366.09,469.9c-7.37-13-11.85,6.78-18.63,1,4.81,4.09,10.21,1,15.13,2.26Z"/><path d="M243.57,454.53c-.7,8.22,1.73,14.93,10.37,17.07,6,1.49,11.48-1.15,13.81-6.78,2.56-6.15,3.35-12.84-4.89-16.23-3.94,3.78-4.93,16.15-14.05,4.8A4.63,4.63,0,0,0,243.57,454.53Z"/><path d="M249.25,455c-2.4,5.26-1.79,9.26,5,8.54,9.2-1,11-6.87,8.59-14.92l-7.23-2.5C251.6,447.68,249.63,450.75,249.25,455Z"/><path d="M249.25,455c3.78-1.77,6.5-4.31,6.39-8.88-3.58-4.22-7.92-4.27-12-1.35s-1.8,6.5-.06,9.79Z"/><path d="M348.08,439.45c-.55,7.56-5.7,10.49-12.16,12.1,1.17,6.92,1.71,16.42,11.45,13.49,7.08-2.13,21.15.26,18.41-14.64C364.08,441.19,358.17,436.33,348.08,439.45Z"/></g><circle class="cls-3" cx="350.09" cy="444.02" r="48.44"/><ellipse class="cls-3" cx="253.6" cy="449.86" rx="36.21" ry="34.09"/><path class="cls-4" d="M397.91,465l-.37-6.47c-6.53-.28-7.62,5.67-10.62,9.36-5.16,6.34-10.34,12.55-19.29,13.39-13.33,4.87-26.3,3.06-39.11-2-7.17-1.34-10.64-6.88-14.64-12.17-2.2-2.91-4.36-9.53-10.12-3.39,4.19,28.22,31.58,44,60,34.7C379.37,491.57,391.54,481.26,397.91,465Z"/><path class="cls-5" d="M287.45,466.77l-.39-5.67c-5.23-1-7.23,3.44-10.12,6.24-14.26,13.8-30.24,13.79-44.53.22-3.19-3-5.43-9.51-12-5.05.91,21.95,19.06,33,44.1,26.76C274.37,484,282.62,477.14,287.45,466.77Z"/><path class="cls-6" d="M302.78,437.61c.13,8.19-1.34,16.56,2.61,24.35,7.74,7,9.4,20.68,23.15,21.09.51-6.75-4.73-11.07-7-16.64-6.08-14.78-1.59-33,10.29-41.39,12.89-9.14,27.73-8.14,39.16,2.66,11.26,10.63,13.2,27.69,5,42.18-2.4,4.25-7.31,7.49-5.9,13.45,17.17.65,19.31-15.37,27.44-24.75,4.93-27.81-8.94-51.5-34.09-58.25-25.79-6.92-48.05,5.89-58.32,33.5A22.53,22.53,0,0,1,302.78,437.61Z"/><path class="cls-3" d="M219.58,446.87q1,7.13,2,14.25c7.93,8.17,14,18.28,27.18,20,17.87,2.37,29.06-6.58,38.25-20,2.62-21.22-6.66-36.93-24.65-41.71S229.84,424.06,219.58,446.87Z"/><path class="cls-7" d="M370.1,483.31c19.83-19.61,21.11-44.35,3.11-60.26a35.66,35.66,0,0,0-46.39-.45c-13.88,11.78-17.56,33.09-8,48.72,2.63,4.29,6.46,7.84,9.74,11.73C342.35,490.1,356.2,491,370.1,483.31Z"/><path class="cls-8" d="M275.8,454.29c-.5-12.61-11.07-22.45-23.2-21.58-11.54.83-20.21,11-19.84,23.26.36,12.12,10,21.87,21.52,21.77C266.14,477.63,276.28,466.58,275.8,454.29Z"/><path class="cls-9" d="M364.09,467.9c10.56-6.91,7.65-17.26,4.5-25.68-3.78-10.1-13.24-13.05-23.88-10.93a5.73,5.73,0,0,0,0,6.13,12.73,12.73,0,0,0,3.84,2.42c4.77,2,9.79,4,9.83,10.27,0,4.32-3.59,5.73-7,7-6.27,2.29-10.91.37-14.12-5.37a22.72,22.72,0,0,0-1.78-2.5c-2.1-2.22-4.46-3.81-7.73-3.1,1.87,24.1,12.87,34.55,24.9,30.92,3.6-1.09,6.51-2.33,8-5.89-2.36-2.9-5.34-2.21-8.35-1.56C356.12,468.58,359.84,466.55,364.09,467.9Z"/><path class="cls-10" d="M346.08,437.45c-.45-2.05-.91-4.11-1.36-6.16-5.09-3.91-10.55-5.89-16-1.21s-4,10.47-1,16l6.24,3.43C344.51,452.08,348,447.43,346.08,437.45Z"/><path class="cls-11" d="M364.09,467.9c-7.37-13-11.85,6.78-18.63,1,4.81,4.09,10.21,1,15.13,2.26Z"/><path class="cls-9" d="M241.57,452.53c-.7,8.22,1.73,14.93,10.37,17.07,6,1.49,11.48-1.15,13.81-6.78,2.56-6.15,3.35-12.84-4.89-16.23-3.94,3.78-4.93,16.15-14.05,4.8A4.63,4.63,0,0,0,241.57,452.53Z"/><path class="cls-12" d="M247.25,453c-2.4,5.26-1.79,9.26,5,8.54,9.2-1,11-6.87,8.59-14.92l-7.23-2.5C249.6,445.68,247.63,448.75,247.25,453Z"/><path class="cls-13" d="M247.25,453c3.78-1.77,6.5-4.31,6.39-8.88-3.58-4.22-7.92-4.27-12-1.35s-1.8,6.5-.06,9.79Z"/><path class="cls-14" d="M346.08,437.45c-.55,7.56-5.7,10.49-12.16,12.1,1.17,6.92,1.71,16.42,11.45,13.49,7.08-2.13,21.15.26,18.41-14.64C362.08,439.19,356.17,434.33,346.08,437.45Z"/></g></g></svg>