<svg xmlns="http://www.w3.org/2000/svg" viewBox="0 0 600 1000"><defs><style>.cls-1{isolation:isolate;}.cls-2{opacity:0.7;mix-blend-mode:multiply;}.cls-3,.cls-5{font-size:21.65px;font-family:LEMONMILK-Bold, LEMON MILK;font-weight:700;}.cls-4,.cls-5,.cls-6{fill:#fff;}.cls-6{font-size:28.57px;font-family:LEMONMILK-Regular, LEMON MILK;}.cls-7{letter-spacing:0.01em;}.cls-8{letter-spacing:-0.04em;}.cls-9{letter-spacing:-0.02em;}</style></defs><g class="cls-1"><g id="Layer_1" data-name="Layer 1"><g class="cls-2"><path d="M265.6,121.88c-.7-.68-1.34-1.27-1.94-1.89a4.37,4.37,0,0,1,0-6,1.41,1.41,0,0,1,2.16,0c.66.64,1.3,1.29,1.95,1.94l.29.27L270.8,113l11.07-12.68a1.58,1.58,0,0,1,1.06-.57c2.32-.23,4.63-.48,6.94-.72.55-.06,1.09-.12,1.65-.16a1.36,1.36,0,0,1,1.55,1.53c-.13,1.55-.31,3.09-.47,4.64-.14,1.28-.29,2.57-.42,3.85a1.68,1.68,0,0,1-.6,1.17c-2.3,2-4.6,4-6.9,6L276,123.61l-.34.32a2.24,2.24,0,0,1,.38.21c.73.72,1.46,1.45,2.18,2.18a1.42,1.42,0,0,1-.07,2.19,4.4,4.4,0,0,1-6.07-.09c-.68-.65-1.33-1.32-2-2l-.32.29c-1.8,1.79-3.58,3.59-5.39,5.38a3.23,3.23,0,0,1-4.73-.05,3.19,3.19,0,0,1,.15-4.45c1.8-1.81,3.61-3.6,5.41-5.4C265.31,122.09,265.43,122,265.6,121.88Z"/><path d="M332.84,134.16h-.15a3.76,3.76,0,0,0-.37-.16,29.44,29.44,0,0,1-5-2.36,19.48,19.48,0,0,1-9.08-11.94,36.19,36.19,0,0,1-1.16-9.14c0-2.72,0-5.43.06-8.15,0-.07,0-.14,0-.24,6,0,11.28-1.65,15.61-5.93,4.36,4.3,9.68,6,15.66,5.94,0,.58,0,1.11,0,1.64a98.71,98.71,0,0,1-.15,10.32,27.8,27.8,0,0,1-1.72,7.8,18.94,18.94,0,0,1-6.13,8.2,25.19,25.19,0,0,1-5.7,3.26C334.1,133.67,333.46,133.91,332.84,134.16Z"/><path d="M412.63,125.48c-.15,0-.3,0-.46,0h-10.5a.79.79,0,0,1-.71-.35l-15.78-19.7-.05-.07,6-6.8a7,7,0,0,1,2.87,2.93c.61,1.2,1.18,2.42,1.82,3.6a10.4,10.4,0,0,0,1.24,1.79,1.42,1.42,0,0,0,2.23.22,7.67,7.67,0,0,0,.81-.7c.23-.21.43-.44.68-.7,0,0,0,0,.06,0l.8.82c.7.71,1.42,1.41,2.12,2.12a.69.69,0,0,1,.2.29c.25,1.18.49,2.36.73,3.59,0,0,0,0,0,0h-7a0,0,0,0,0,0,0v2.07l0,0c2.34,0,4.67,0,7,0,.4,0,.54.12.6.49.07.53.19,1,.3,1.6,0,0,0,.06,0,.06h-5.71a0,0,0,0,0,0,0V119h.41c2.32,0,4.64,0,7,0a5.36,5.36,0,0,1,5.33,4c.07.25.12.5.18.75h0Z"/><path d="M412.63,131.93c-.15,0-.3,0-.46,0-4.56,0-9.13,0-13.69,0a.64.64,0,0,1-.55-.25q-8.88-11.12-17.79-22.22l-.2-.26,3.34-2.67.24.27q8.21,10.23,16.4,20.48a.84.84,0,0,0,.75.36h11.5c.16,0,.31,0,.46,0Z"/><rect x="375.94" y="121.18" width="8.57" height="2.1" rx="0.72"/><rect x="380.25" y="125.48" width="8.57" height="2.09" rx="0.82"/><rect x="384.54" y="129.78" width="8.57" height="2.09" rx="0.76"/><path d="M194,111.06v-1.67c0-.16.06-.31.08-.47a11.36,11.36,0,0,1,4.45-8.26,10,10,0,0,1,9-1.72,10.42,10.42,0,0,1,5.66,4c.44.59.83,1.22,1.27,1.86a4.42,4.42,0,0,1,.28-.45,31,31,0,0,1,1.95-2.57,9.85,9.85,0,0,1,10.75-2.69,10.56,10.56,0,0,1,7,7.78,13.2,13.2,0,0,1-2,11,30.19,30.19,0,0,1-5,5.73c-3.95,3.51-8,7-11.95,10.43a1.3,1.3,0,0,1-2,0c-3.17-2.73-6.35-5.45-9.51-8.2a46.25,46.25,0,0,1-6.66-6.83,15.23,15.23,0,0,1-2.84-5.6C194.22,112.69,194.13,111.87,194,111.06Z"/><text class="cls-3" transform="translate(205.53 166.33)">2</text><text class="cls-3" transform="translate(267.06 166.33)">1</text><text class="cls-3" transform="translate(323.88 166.33)">2</text><text class="cls-3" transform="translate(387.4 166.33)">3</text></g><path class="cls-4" d="M264.6,121.88c-.7-.68-1.34-1.27-1.94-1.89a4.37,4.37,0,0,1,0-6,1.41,1.41,0,0,1,2.16,0c.66.64,1.3,1.29,1.95,1.94l.29.27L269.8,113l11.07-12.68a1.58,1.58,0,0,1,1.06-.57c2.32-.23,4.63-.48,6.94-.72.55-.06,1.09-.12,1.65-.16a1.36,1.36,0,0,1,1.55,1.53c-.13,1.55-.31,3.09-.47,4.64-.14,1.28-.29,2.57-.42,3.85a1.68,1.68,0,0,1-.6,1.17c-2.3,2-4.6,4-6.9,6L275,123.61l-.34.32a2.24,2.24,0,0,1,.38.21c.73.72,1.46,1.45,2.18,2.18a1.42,1.42,0,0,1-.07,2.19,4.4,4.4,0,0,1-6.07-.09c-.68-.65-1.33-1.32-2-2l-.32.29c-1.8,1.79-3.58,3.59-5.39,5.38a3.23,3.23,0,0,1-4.73-.05,3.19,3.19,0,0,1,.15-4.45c1.8-1.81,3.61-3.6,5.41-5.4C264.31,122.09,264.43,122,264.6,121.88Z"/><path class="cls-4" d="M331.84,134.16h-.15a3.76,3.76,0,0,0-.37-.16,29.44,29.44,0,0,1-5-2.36,19.48,19.48,0,0,1-9.08-11.94,36.19,36.19,0,0,1-1.16-9.14c0-2.72,0-5.43.06-8.15,0-.07,0-.14,0-.24,6,0,11.28-1.65,15.61-5.93,4.36,4.3,9.68,6,15.66,5.94,0,.58,0,1.11,0,1.64a98.71,98.71,0,0,1-.15,10.32,27.8,27.8,0,0,1-1.72,7.8,18.94,18.94,0,0,1-6.13,8.2,25.19,25.19,0,0,1-5.7,3.26C333.1,133.67,332.46,133.91,331.84,134.16Z"/><path class="cls-4" d="M411.63,125.48c-.15,0-.3,0-.46,0h-10.5a.79.79,0,0,1-.71-.35l-15.78-19.7-.05-.07,6-6.8a7,7,0,0,1,2.87,2.93c.61,1.2,1.18,2.42,1.82,3.6a10.4,10.4,0,0,0,1.24,1.79,1.42,1.42,0,0,0,2.23.22,7.67,7.67,0,0,0,.81-.7c.23-.21.43-.44.68-.7,0,0,0,0,.06,0l.8.82c.7.71,1.42,1.41,2.12,2.12a.69.69,0,0,1,.2.29c.25,1.18.49,2.36.73,3.59,0,0,0,0,0,0h-7a0,0,0,0,0,0,0v2.07l0,0c2.34,0,4.67,0,7,0,.4,0,.54.12.6.49.07.53.19,1,.3,1.6,0,0,0,.06,0,.06h-5.71a0,0,0,0,0,0,0V119h.41c2.32,0,4.64,0,7,0a5.36,5.36,0,0,1,5.33,4c.07.25.12.5.18.75h0Z"/><path class="cls-4" d="M411.63,131.93c-.15,0-.3,0-.46,0-4.56,0-9.13,0-13.69,0a.64.64,0,0,1-.55-.25q-8.88-11.12-17.79-22.22l-.2-.26,3.34-2.67.24.27q8.21,10.23,16.4,20.48a.84.84,0,0,0,.75.36h11.5c.16,0,.31,0,.46,0Z"/><rect class="cls-4" x="374.94" y="121.18" width="8.57" height="2.1" rx="0.72"/><rect class="cls-4" x="379.25" y="125.48" width="8.57" height="2.09" rx="0.82"/><rect class="cls-4" x="383.54" y="129.78" width="8.57" height="2.09" rx="0.76"/><path class="cls-4" d="M193,111.06v-1.67c0-.16.06-.31.08-.47a11.36,11.36,0,0,1,4.45-8.26,10,10,0,0,1,9-1.72,10.42,10.42,0,0,1,5.66,4c.44.59.83,1.22,1.27,1.86a4.42,4.42,0,0,1,.28-.45,31,31,0,0,1,1.95-2.57,9.85,9.85,0,0,1,10.75-2.69,10.56,10.56,0,0,1,7,7.78,13.2,13.2,0,0,1-2,11,30.19,30.19,0,0,1-5,5.73c-3.95,3.51-8,7-11.95,10.43a1.3,1.3,0,0,1-2,0c-3.17-2.73-6.35-5.45-9.51-8.2a46.25,46.25,0,0,1-6.66-6.83,15.23,15.23,0,0,1-2.84-5.6C193.22,112.69,193.13,111.87,193,111.06Z"/><text class="cls-5" transform="translate(204.53 166.33)">2</text><text class="cls-5" transform="translate(266.06 166.33)">1</text><text class="cls-5" transform="translate(322.88 166.33)">2</text><text class="cls-5" transform="translate(386.4 166.33)">3</text><text class="cls-6" transform="translate(169.97 920.22) scale(0.99 1)">WEG<tspan class="cls-7" x="68.7" y="0">L</tspan><tspan x="85.26" y="0">AN</tspan><tspan class="cls-8" x="129.68" y="0">D</tspan><tspan x="149.8" y="0">’S </tspan><tspan class="cls-9" x="182.85" y="0">f</tspan><tspan x="198.57" y="0">olk</tspan></text></g></g></svg>