<svg xmlns="http://www.w3.org/2000/svg" viewBox="0 0 600 1000"><defs><style>.cls-1{isolation:isolate;}.cls-2{opacity:0.75;mix-blend-mode:multiply;}.cls-3{fill:#f9f9f9;}.cls-4{fill:#bdb8b9;}.cls-5{fill:#bcbbba;}.cls-6{fill:#f9f8f8;}.cls-7{fill:#050708;}.cls-8{fill:#0c0e0f;}.cls-9{fill:#9df01a;}.cls-10{fill:#ecefef;}.cls-11{fill:#004b23;}.cls-12{fill:#050607;}.cls-13{fill:#f0f1f0;}.cls-14{fill:#040405;}</style></defs><g class="cls-1"><g id="Layer_1" data-name="Layer 1"><g class="cls-2"><circle cx="261.24" cy="446.26" r="45.71"/><ellipse cx="353.48" cy="454.65" rx="34.99" ry="32.95"/><path d="M216.11,466.07l.35-6.09c6.17-.27,7.19,5.34,10,8.83,4.87,6,9.76,11.84,18.2,12.63,12.58,4.6,24.82,2.89,36.91-1.93,6.76-1.26,10-6.48,13.81-11.47,2.08-2.75,4.12-9,9.55-3.2-3.95,26.62-29.79,41.55-56.64,32.74C233.61,491.14,222.12,481.41,216.11,466.07Z"/><path d="M320.77,471c.13-1.83.25-3.66.37-5.48,5.07-.93,7,3.32,9.79,6,13.78,13.33,29.22,13.33,43,.22,3.08-2.93,5.25-9.2,11.6-4.88-.88,21.21-18.43,31.84-42.62,25.85C333.41,487.67,325.44,481,320.77,471Z"/><path d="M305.88,440.21c-.12,7.74,1.27,15.63-2.46,23-7.31,6.61-8.87,19.52-21.85,19.9-.48-6.36,4.46-10.44,6.62-15.7,5.74-13.95,1.51-31.1-9.71-39.06-12.16-8.62-26.16-7.67-37,2.51-10.63,10-12.46,26.13-4.75,39.8,2.27,4,6.91,7.08,5.58,12.7-16.21.61-18.22-14.51-25.9-23.36-4.65-26.24,8.43-48.59,32.17-55,24.34-6.53,45.34,5.56,55,31.61A21,21,0,0,0,305.88,440.21Z"/><path d="M386.36,451.77q-1,6.89-2,13.77c-7.66,7.89-13.55,17.66-26.26,19.34-17.27,2.29-28.08-6.36-37-19.36-2.53-20.51,6.44-35.69,23.83-40.31S376.45,429.72,386.36,451.77Z"/><path d="M242.36,483.34c-18.72-18.51-19.93-41.85-2.94-56.86a33.63,33.63,0,0,1,43.77-.43c13.1,11.12,16.58,31.23,7.57,46-2.48,4.05-6.1,7.4-9.19,11.07C268.54,489.74,255.47,490.61,242.36,483.34Z"/><path d="M332,458.93c.48-12.19,10.7-21.69,22.42-20.85,11.15.8,19.53,10.61,19.17,22.47s-9.66,21.14-20.79,21C341.36,481.49,331.56,470.81,332,458.93Z"/><path d="M248,468.8c-10-6.52-7.23-16.29-4.26-24.23,3.58-9.54,12.51-12.32,22.54-10.32a5.43,5.43,0,0,1,0,5.79,11.84,11.84,0,0,1-3.63,2.28c-4.49,1.9-9.23,3.79-9.27,9.69,0,4.07,3.38,5.41,6.63,6.59,5.92,2.16,10.3.34,13.33-5.07a21.13,21.13,0,0,1,1.68-2.36c2-2.1,4.21-3.6,7.29-2.92-1.77,22.73-12.14,32.6-23.5,29.17-3.39-1-6.13-2.19-7.55-5.56,2.22-2.73,5-2.08,7.87-1.47C255.54,469.44,252,467.52,248,468.8Z"/><path d="M265,440.06c.43-1.93.85-3.87,1.29-5.81,4.8-3.69,9.94-5.56,15.12-1.14s3.79,9.88,1,15.14l-5.9,3.23C266.5,453.87,263.26,449.48,265,440.06Z"/><path d="M248,468.8c6.95-12.25,11.17,6.39,17.57.93-4.53,3.86-9.63.91-14.28,2.13Z"/><path d="M365.11,457.23c.67,7.95-1.68,14.43-10,16.5-5.76,1.43-11.09-1.12-13.34-6.55-2.47-5.95-3.24-12.41,4.73-15.69,3.8,3.65,4.76,15.61,13.57,4.64A4.49,4.49,0,0,1,365.11,457.23Z"/><path d="M359.62,457.66c2.32,5.08,1.73,8.94-4.86,8.25-8.89-.93-10.69-6.63-8.3-14.42l7-2.41C357.34,450.61,359.25,453.58,359.62,457.66Z"/><path d="M359.62,457.66c-3.65-1.72-6.28-4.16-6.17-8.58,3.45-4.08,7.65-4.13,11.6-1.31s1.74,6.28.06,9.46Z"/><path d="M265,440.06c.52,7.14,5.37,9.91,11.47,11.42-1.1,6.53-1.61,15.5-10.8,12.73-6.68-2-20,.24-17.37-13.81C249.92,441.71,255.5,437.12,265,440.06Z"/></g><circle class="cls-3" cx="259.24" cy="444.26" r="45.71"/><ellipse class="cls-3" cx="351.48" cy="452.65" rx="34.99" ry="32.95"/><path class="cls-4" d="M214.11,464.07l.35-6.09c6.17-.27,7.19,5.34,10,8.83,4.87,6,9.76,11.84,18.2,12.63,12.58,4.6,24.82,2.89,36.91-1.93,6.76-1.26,10-6.48,13.81-11.47,2.08-2.75,4.12-9,9.55-3.2-3.95,26.62-29.79,41.55-56.64,32.74C231.61,489.14,220.12,479.41,214.11,464.07Z"/><path class="cls-5" d="M318.77,469c.13-1.83.25-3.66.37-5.48,5.07-.93,7,3.32,9.79,6,13.78,13.33,29.22,13.33,43,.22,3.08-2.93,5.25-9.2,11.6-4.88-.88,21.21-18.43,31.84-42.62,25.85C331.41,485.67,323.44,479,318.77,469Z"/><path class="cls-6" d="M303.88,438.21c-.12,7.74,1.27,15.63-2.46,23-7.31,6.61-8.87,19.52-21.85,19.9-.48-6.36,4.46-10.44,6.62-15.7,5.74-13.95,1.51-31.1-9.71-39.06-12.16-8.62-26.16-7.67-37,2.51-10.63,10-12.46,26.13-4.75,39.8,2.27,4,6.91,7.08,5.58,12.7-16.21.61-18.22-14.51-25.9-23.36-4.65-26.24,8.43-48.59,32.17-55,24.34-6.53,45.34,5.56,55,31.61A21,21,0,0,0,303.88,438.21Z"/><path class="cls-3" d="M384.36,449.77q-1,6.89-2,13.77c-7.66,7.89-13.55,17.66-26.26,19.34-17.27,2.29-28.08-6.36-37-19.36-2.53-20.51,6.44-35.69,23.83-40.31S374.45,427.72,384.36,449.77Z"/><path class="cls-7" d="M240.36,481.34c-18.72-18.51-19.93-41.85-2.94-56.86a33.63,33.63,0,0,1,43.77-.43c13.1,11.12,16.58,31.23,7.57,46-2.48,4.05-6.1,7.4-9.19,11.07C266.54,487.74,253.47,488.61,240.36,481.34Z"/><path class="cls-8" d="M330,456.93c.48-12.19,10.7-21.69,22.42-20.85,11.15.8,19.53,10.61,19.17,22.47s-9.66,21.14-20.79,21C339.36,479.49,329.56,468.81,330,456.93Z"/><path class="cls-9" d="M246,466.8c-10-6.52-7.23-16.29-4.26-24.23,3.58-9.54,12.51-12.32,22.54-10.32a5.43,5.43,0,0,1,0,5.79,11.84,11.84,0,0,1-3.63,2.28c-4.49,1.9-9.23,3.79-9.27,9.69,0,4.07,3.38,5.41,6.63,6.59,5.92,2.16,10.3.34,13.33-5.07a21.13,21.13,0,0,1,1.68-2.36c2-2.1,4.21-3.6,7.29-2.92-1.77,22.73-12.14,32.6-23.5,29.17-3.39-1-6.13-2.19-7.55-5.56,2.22-2.73,5-2.08,7.87-1.47C253.54,467.44,250,465.52,246,466.8Z"/><path class="cls-10" d="M263,438.06c.43-1.93.85-3.87,1.29-5.81,4.8-3.69,9.94-5.56,15.12-1.14s3.79,9.88,1,15.14l-5.9,3.23C264.5,451.87,261.26,447.48,263,438.06Z"/><path class="cls-11" d="M246,466.8c6.95-12.25,11.17,6.39,17.57.93-4.53,3.86-9.63.91-14.28,2.13Z"/><path class="cls-9" d="M363.11,455.23c.67,7.95-1.68,14.43-10,16.5-5.76,1.43-11.09-1.12-13.34-6.55-2.47-5.95-3.24-12.41,4.73-15.69,3.8,3.65,4.76,15.61,13.57,4.64A4.49,4.49,0,0,1,363.11,455.23Z"/><path class="cls-12" d="M357.62,455.66c2.32,5.08,1.73,8.94-4.86,8.25-8.89-.93-10.69-6.63-8.3-14.42l7-2.41C355.34,448.61,357.25,451.58,357.62,455.66Z"/><path class="cls-13" d="M357.62,455.66c-3.65-1.72-6.28-4.16-6.17-8.58,3.45-4.08,7.65-4.13,11.6-1.31s1.74,6.28.06,9.46Z"/><path class="cls-14" d="M263,438.06c.52,7.14,5.37,9.91,11.47,11.42-1.1,6.53-1.61,15.5-10.8,12.73-6.68-2-20,.24-17.37-13.81C247.92,439.71,253.5,435.12,263,438.06Z"/></g></g></svg>