<svg id="Layer_1" data-name="Layer 1" xmlns="http://www.w3.org/2000/svg" xmlns:xlink="http://www.w3.org/1999/xlink" viewBox="0 0 600 1000"><defs><style>.cls-1{fill:none;}.cls-2{fill:#1a1a1a;}.cls-3{opacity:0.38;}.cls-4{clip-path:url(#clip-path);}.cls-5{fill:#081c14;}.cls-6{fill:#51b787;}</style><clipPath id="clip-path"><path class="cls-1" d="M404.16,546.28c12,51.22-27.72,85.36-56.48,80.65s-45,5.89-76.37,8.84c-27.8,2.6-57.65-9.93-71-30a44.61,44.61,0,0,1-4.3-8.13c-9.94-24.73,19.87-47.22,2.09-103.73s13.08-165.44,68-148.95c41.19,12.36,55.63,8.36,59.79,4.8,16.77-14.35,38-9.15,55.14,5.72.77.66,1.54,1.36,2.3,2.07a1.07,1.07,0,0,1,.19.18q2.72,2.57,5.27,5.44c.15.16.31.33.46.51a95.71,95.71,0,0,1,18.59,32.5c9.82,29.6-3.94,70.48-6.32,110.68l-.12,2.28c0,.57-.06,1.14-.08,1.73l0,.71c0,.23,0,.46,0,.7,0,.81-.05,1.62-.07,2.44v.09c0,1,0,2,0,3,0,1.17,0,2.34,0,3.5A120.27,120.27,0,0,0,404.16,546.28Z"/></clipPath></defs><path d="M452.87,559.93c-3.14-2.36-26.08-21.12-29.35-24-6.55-5.88-11.67-13-15.67-19.22A165.45,165.45,0,0,1,399,500.94c-.93-2-1.66-3.51-2.15-4.56s-.68-1.55-.68-1.55l-.1-.21,0-.08a6.24,6.24,0,0,0-11.33,5.22l.85,1.84c.55,1.15,1.35,2.81,2.43,4.89a177.42,177.42,0,0,0,9.8,16.75c4.5,6.68,10.14,14.37,18.17,21.34,4,3.43,2.57,2.46,10.08,7.63,8.74,6.52,21.88,15.2,21.88,15.2S453,561.24,452.87,559.93Z"/><path class="cls-2" d="M251.39,547.49s-1.69,64.36,13.8,114.89c12.93,42.2,15.31,66.16,12.43,67.6-7.37,3.7-23.59-8.86-34.89-5.17s-16.7,14.77-10.31,20,46.67-3,53.06-3.7,14.74,3,14.74-5.17-11.84-19-14.74-33.24c-7.36-36-7.56-152.21-7.56-152.21Z"/><path d="M345.05,555.6s18.26,28.42-10.64,93.86c-16.59,37.56-24.89,52-21.61,53.81,6.46,3.51,25.16-6,35.5-2.26s13.26,13.29,5.84,17.22S308.79,713,302.65,712s-15.16,1.6-13.4-5.17S306.61,692.71,311,680c6.69-19.38,12.78-133,12.78-133Z"/><path d="M155,551.17c3.5-1.76,29.42-16.16,33.15-18.43C195.67,528.12,202,522,207,516.61a165.62,165.62,0,0,0,11.48-13.93c1.26-1.77,2.25-3.16,2.93-4.1l.94-1.41.14-.2,0-.06a6.23,6.23,0,0,1,10.22,7.14l-1.16,1.66c-.74,1-1.83,2.53-3.25,4.39a176.6,176.6,0,0,1-12.63,14.73c-5.61,5.78-12.53,12.35-21.66,17.78-4.58,2.66-3,2-11.27,5.72-9.77,4.87-24.24,11.08-24.24,11.08S154.67,552.43,155,551.17Z"/><path d="M142.22,569.11a5.84,5.84,0,0,1-1.64.54c-1.14-.57-1.38-3.41-1.4-4.47,0-.36,1.71-1,2.15-1.24,2.21-1,2.55-.72,2.3-1.37s.51-1.16-1.83,0c-1.37.68-4.8,1.32-5.34-.27,0,0-.55-1.61-.55-1.62a9.59,9.59,0,0,1-.27-1.27c-.26-1,2.26-2.42,3.34-2.48,1.47-.08,1.89-.2,1.85-.78s-.78-1.14-2.34-1-4.09-.86-4.12-2.37c0-.58,0-1.44,0-2a2.87,2.87,0,0,1,1.82-2.82c1-.47,8.73-1.49,7.17-3.18-.91-1-3.67-6.11-.66-6.4,5.11-.5,10.66,3.76,13.1,5.67,2.88,2.27,3.52,2.21,4.78,3.39a2.64,2.64,0,0,1,.79,2.4l-1.54,8.35c-.08.44-1,1-1.36,1.27a75.58,75.58,0,0,1-7.67,4.7s-.1.13-3.86,2.45c-.47.3-1.74,1-1.84,1.07A14.21,14.21,0,0,1,142.22,569.11Z"/><path d="M143.36,544.77c-.91-1-3.67-6.11-.66-6.4,3.77-.37,7.79,1.86,10.61,3.81-.7,1.09-3.95,6.17-5.74,6C146.17,548.09,143.48,544.9,143.36,544.77Z"/><path d="M141.38,568a1.54,1.54,0,0,1-.19-.17s0,0-.05-.1c-.37-.5-.77-1.17-1.1-1.71a7.87,7.87,0,0,1-.43-1.1,7.42,7.42,0,0,1,2.41-1.22c.72-.23,1-.21,1.37.48a7,7,0,0,1,.47.8l.49,1.13a1.72,1.72,0,0,1-.95,2.45,9.09,9.09,0,0,1-1,.53C142.08,568.7,141.8,568.18,141.38,568Z"/><path d="M464.62,577.39a5.89,5.89,0,0,0,1.63.54c1.14-.57,1.38-3.41,1.4-4.47,0-.36-1.71-1-2.15-1.24-2.21-1-2.55-.71-2.3-1.37s-.51-1.16,1.83,0c1.37.68,4.8,1.33,5.34-.27,0,0,.55-1.61.56-1.62a11.44,11.44,0,0,0,.26-1.27c.27-1-2.26-2.42-3.33-2.48-1.47-.08-1.9-.2-1.86-.78s.78-1.14,2.34-1,4.09-.86,4.13-2.37c0-.58,0-1.44,0-2a2.89,2.89,0,0,0-1.83-2.82c-1-.47-8.73-1.49-7.17-3.17.91-1,3.68-6.12.66-6.41-5.11-.5-10.66,3.76-13.09,5.67-2.89,2.27-3.53,2.21-4.79,3.4a2.63,2.63,0,0,0-.79,2.39l1.54,8.35c.08.44,1,1,1.37,1.27a72.65,72.65,0,0,0,7.67,4.7s.09.13,3.85,2.45c.48.3,1.75,1,1.84,1.07A13.82,13.82,0,0,0,464.62,577.39Z"/><path class="cls-3" d="M403.59,546.26c12,51.22-27.56,85.36-56.16,80.66s-44.72,5.88-75.92,8.83c-27.63,2.61-57.32-9.93-70.6-30,15.32,9.45,35.19,14.44,53.61,12.7,31.52-3,47.8-13.72,76.7-9s74.26-31.82,62.18-83.7,11.36-110.14-1.77-150.1c-2.77-8.4-6.22-13.09-11.06-20.23l-.17-.25q1.26,1.14,2.46,2.31a1.07,1.07,0,0,1,.19.18c1.82,1.76,3.56,3.56,5.24,5.44l.45.51c7.23,8.17,13.17,17.7,18.17,31,11.2,29.74-3.47,71.24-6,112.19-.05.75-.09,1.51-.13,2.27,0,.57-.06,1.16-.07,1.73,0,.23,0,.47,0,.71s0,.47,0,.71c0,.8-.06,1.62-.07,2.43v.1c0,1,0,2,0,3,0,1.18,0,2.34,0,3.51A121.62,121.62,0,0,0,403.59,546.26Z"/><g class="cls-4"><path class="cls-5" d="M111.73,620.21V538.37c1.06-.3.88-.88,1-1.38a51.17,51.17,0,0,0,0-17.63c-.07-.45.08-1-.93-1.23V409.77c.73-.09.88-.4,1-.74.29-.93.65-1.86.89-2.8.76-3,1-5.93-.36-8.87-.27-.57-.3-1.25-1.52-1.56V341.34a1.41,1.41,0,0,1,1,.08c0,.54.48,1,.83,1.49a35.3,35.3,0,0,0,5.37,5.54l27.69,24.06c3.66,3.18,7.21,6.41,11.11,9.51,5.5,4.36,9.57,3.78,15.23,2.65,12.5-2.49,25-4.94,37.51-7.43,7.89-1.57,15.84-3.06,23.61-4.81,11.68-2.62,21-6.8,28.1-12.44a57.45,57.45,0,0,0,7-6.36c8.09-8.91,14-18.22,17.05-28a27.55,27.55,0,0,0,.92-13.2,61.16,61.16,0,0,0-2.57-8.42c-1.13-3.34-.09-6.41,3.47-9.23a53.52,53.52,0,0,1,6.24-4.22,63.1,63.1,0,0,0,8.4-5.84c.45-.37,1.27-.69,1-1.24l.12-.28h50l.16.28c-.72.32-.87.81-1.2,1.25a101.51,101.51,0,0,1-17.79,18.22,52.28,52.28,0,0,0-6.47,6c-5.87,6.45-9.1,13.33-11.53,20.35-2.28,6.58-4,13.21-6.26,19.79a41.1,41.1,0,0,1-11.73,17.57c-1.45,1.3-2.66,2.68-4,4a12.63,12.63,0,0,0-3.66,7.95c-.18,1.56.54,3,2.6,4.19a63.38,63.38,0,0,0,8,3.92c3.14,1.3,6.39,2.51,9.28,4,4.23,2.14,7,4.71,8.05,7.82,1.24,3.6,1.57,7.26,2.48,10.88.77,3.08,2.75,5.87,6.62,8.22,1.05.64,2,1.3,3,2A55.16,55.16,0,0,1,346.84,436c3,4.62,5.39,9.33,8,14a15,15,0,0,0,5.19,5.07,45.29,45.29,0,0,0,6.93,3.49c3.11,1.31,6.22,2.62,9.42,3.87,4.19,1.65,6.56,3.9,7.55,6.6.53,1.44,1,2.89,1.38,4.35.71,2.48,1.2,5,2.6,7.4A13.94,13.94,0,0,0,393.6,486c3.27,1.78,7,2.32,11.53,1.75a93.42,93.42,0,0,0,14.22-2.9c4.71-1.36,9.37-2.78,14.08-4.15a83.91,83.91,0,0,1,13.65-2.92c3.93-.46,7.88-1,11.94-.4,1.18.18,2.37.34,3.54.53a33.44,33.44,0,0,0,10.89,0,32,32,0,0,0,11.85-4l.53,0v23.95a10.85,10.85,0,0,0-2.78.36c-4.37.85-8.81,1.58-13.3,2.22-9.76,1.41-19.8,2-29.73,2.85a143.89,143.89,0,0,0-19.74,2.86c-8.87,2.06-15.7,5.3-19.81,10.11a16.08,16.08,0,0,0-4,9.66c-.41,5.95,1.74,11.71,4.94,17.37,2.32,4.08,4.88,8.12,7.28,12.19,2.59,4.4,4.37,8.88,4.15,13.56a20.08,20.08,0,0,0,.46,4c.62,3.85,4,6.8,9.92,8.94A79.41,79.41,0,0,0,435,585.1c10.1,2,20.67,2.89,31.15,4,4.12.44,7.19-.46,9.14-2.46.61-.63,1.16-1.28,1.69-1.93.87-1.09,1.63-2.21,2.57-3.28a32.68,32.68,0,0,1,6.31-6v46.77a2,2,0,0,1-.44-.09c-2.94-2.24-6.93-3.73-11.52-4.8a95,95,0,0,0-9.78-1.66q-15.87-2-31.77-3.9l-36.68-4.43a35.59,35.59,0,0,0-18.14,2c-3.42,1.42-7.15,2.58-10.85,3.76-3.55,1.13-7.08,2.29-10.32,3.68a22.86,22.86,0,0,0-5.5,3.23c-2.36,2-2.79,3.94-.89,6.07,1.53,1.71,3,3.44,4.38,5.18,3.67,4.62,7.35,9.25,10.9,13.9,4.78,6.29,11.09,12.17,16.65,18.26a24.49,24.49,0,0,0,3.68,3.11c4,2.9,9.22,4.75,15.9,5.33,3.73.32,7.48.47,11.25.5,5.45,0,10.85.31,16.24.71a252.38,252.38,0,0,1,27.78,3.69c7.15,1.33,10.52.66,14.59-2.85,2.33-2,4.53-4.07,6.69-6.14,2.66-2.54,5.23-5.11,7.83-7.68v39.35a5.56,5.56,0,0,0-1.42,1.51,30.23,30.23,0,0,1-10.66,9.53c-4.69,2.66-5,5.5-1.73,8.75a26.43,26.43,0,0,0,5.94,4.15,58.68,58.68,0,0,1,6.6,3.85,2.14,2.14,0,0,0,1.27.44V738c-1.07.18-1.85.52-2.1,1.14H450.05a3.33,3.33,0,0,0-.91-1.47c-1.86-2.26-3.71-4.51-5.58-6.76-1.65-2-3.24-4-4.74-6a16.43,16.43,0,0,1-3-8.92c-.28-3.5-.4-7-1.57-10.49-2.14-6.39-8.17-9.77-19.7-11-3.35-.36-6.77-.48-10.17-.64-8.18-.36-14.94,1.18-20.47,4.41-.65.39-1.35.75-2,1.15l-8.64,5.74A50.07,50.07,0,0,1,366.4,709a29.8,29.8,0,0,1-15.66,2.31c-.86-.09-1.75-.1-2.61-.19a29.55,29.55,0,0,0-17.62,3.22,50.92,50.92,0,0,0-7.36,4.83,59.35,59.35,0,0,1-7.86,5c-1.79,1-3.57,2-5.28,3a24.29,24.29,0,0,0-5.39,4c-2.17,2.31-2.39,4.62-.09,7,.33.33.83.62.83,1H272.21c.14-.31-.15-.55-.47-.78-2.76-2-5.17-4.17-7.71-6.27a23.08,23.08,0,0,0-5-3.09,17.54,17.54,0,0,0-8.67-1.6,18.92,18.92,0,0,0-7.37,2,38.89,38.89,0,0,0-11.75,9.18c-.14.15,0,.36-.06.55H197c.31-.34.63-.67.95-1,4.11-4.31,7.78-8.72,9.81-13.48a8.64,8.64,0,0,0,.54-6.22c-.88-2.67-3.49-4.84-6.91-6.75-2.26-1.26-4.59-2.49-6.84-3.75-5.49-3.08-9.25-6.66-10.82-10.89a16,16,0,0,0-3.94-5.72c-5.89-5.78-16.55-8.1-28.16-6.12-1.76.3-3.52.6-5.25.94-6.14,1.21-11.53.65-16.13-1.93-.49-.27-1-.53-1.51-.79-1.26-.66-2.46-1.36-3.8-2a39.41,39.41,0,0,0-13.18-3.62v-18a24.86,24.86,0,0,1,7.25,1c4.44,1,8.59,2.35,12.8,3.62,5.13,1.54,10.23,3.11,15.65,4.34a56.56,56.56,0,0,0,9.57,1.45c4.95.27,8.5-1.14,9.56-3.78a4,4,0,0,0,.33-1.69,11.71,11.71,0,0,0-1.83-5.44c-2.71-4.71-7.27-8.92-12.15-13-6.69-5.65-14.65-10.76-22.6-15.88-5.08-3.27-10.32-6.46-16-9.42A3.73,3.73,0,0,0,111.73,620.21Zm99.35-138.94H206.2A191,191,0,0,0,178.61,483c-12.24,1.82-22.83,5.09-30.81,10.55A27.55,27.55,0,0,0,136,510c-1.75,6.54-1,13.08.21,19.61,1,5.58,2.34,11.14,2.9,16.74.21,2.14,1.79,3.94,4.84,5.33q2.63,1.2,5.34,2.32A158.79,158.79,0,0,0,177.11,563c14.95,3.26,29.41,2.9,43.39-1.61,4.22-1.36,8.32-2.81,12.3-4.38q17.32-6.82,34.64-13.68c7.72-3,15.43-6.11,23.07-9.22,4.89-2,9.1-4.36,11.93-7.31,4.61-4.8,10.07-9.36,14-14.36a24.2,24.2,0,0,1,5.76-5.25,14.71,14.71,0,0,1,5.93-2.25c3.68-.59,5.86-2,7.23-3.85a6.47,6.47,0,0,0,1.2-3.77,25.31,25.31,0,0,0-1.75-9.19c-3.05-8.79-8.93-17-18-24.45a38.91,38.91,0,0,0-9.08-5.69,28.85,28.85,0,0,0-22.69-.58,58.11,58.11,0,0,0-6.7,3L254.19,473a99.92,99.92,0,0,1-10.41,4.79,55.38,55.38,0,0,1-17.34,3.38C221.18,481.37,215.92,481.21,211.08,481.27Zm-80,3c1.57,0,3.14-.05,4.71-.19a59.54,59.54,0,0,0,14.43-3.29c5.17-1.81,10-3.88,14.78-5.95,9.16-3.94,19.62-6.16,31.08-7.17,7.08-.63,14.2-1.15,21.23-2,10.27-1.19,19.42-3.49,26.86-7.6,2.58-1.43,5.27-2.79,7.92-4.17a53.9,53.9,0,0,1,13.59-4.79c3.5-.75,7-1.5,10.49-2.27A75.36,75.36,0,0,0,287,443.69c12.66-4.86,16-17,.07-22.81-2.4-.88-4.78-1.77-7.26-2.58a34.07,34.07,0,0,1-10.69-5.6,83.69,83.69,0,0,1-7.18-6.64,68.16,68.16,0,0,0-7.48-6.7,42,42,0,0,0-11.74-5.84,48.94,48.94,0,0,0-28.3-.95c-4.37,1.13-8.49,2.48-12.54,3.89a98.81,98.81,0,0,1-22.07,4.79c-4.72.51-9.41,1.1-14,2-8.11,1.58-13.91,4.47-17.4,8.75a25.1,25.1,0,0,0-4.1,7.2c-1.56,4.2-2.06,8.47-3.12,12.7-1.36,5.42-4.42,10.45-10.6,14.84-1.65,1.17-3.14,2.41-4.74,3.59-5.42,4-8.09,8.47-8,13.45a23.07,23.07,0,0,1-1,8c-.56,1.68-1.32,3.34-1.8,5-.69,2.37.83,4.29,4.49,5.68A30.53,30.53,0,0,0,131,484.24Zm91.65,217.92a11.2,11.2,0,0,0,1.07,5c.87,1.86,2.83,3.23,6,4.13a54.93,54.93,0,0,0,5.82,1.3c4.87.82,9.88,1.28,14.91,1.69,7.27.61,14.64.87,21.82,1.78,4.87.62,9.75,1.17,14.72,1.47a69,69,0,0,0,23.42-2.33,71.94,71.94,0,0,0,14.41-5.91,167.58,167.58,0,0,0,23.88-15.72,35.19,35.19,0,0,0,7.94-8.33c3.56-5.5,2.95-10.82-2.23-16a65.08,65.08,0,0,0-6.08-5.33,39.87,39.87,0,0,1-11.55-13.5,57.86,57.86,0,0,0-5.67-9.63,27.12,27.12,0,0,0-9.39-7.83c-6.24-3.22-14-3.94-21.85-2a40.91,40.91,0,0,0-7.11,2.42,37.22,37.22,0,0,0-10.45,6.9,76.09,76.09,0,0,0-7.95,8.83c-4.83,6.14-11.47,11.63-19.57,16.64-5,3.1-10.07,6.21-14.84,9.44C228.57,682.91,223,691.71,222.69,702.16Zm24.75-104a43.81,43.81,0,0,0-1.66-11.69,16.8,16.8,0,0,0-2.58-5.66c-2.23-3.05-6.24-5-12.17-5.72a59.79,59.79,0,0,0-9.66-.43c-11.63.48-23.18,1.29-34.68,2.34-8.11.75-16.19,1.61-24.43,1.91A96.84,96.84,0,0,0,150.89,580c-8.46,1.34-13.93,4.24-15.83,9a11.08,11.08,0,0,0-.76,3.39c-.25,4,1.17,7.76,3.44,11.47,5.24,8.57,12.65,16.59,21.81,24.11,7.34,6,14.87,12,20.8,18.47a28.78,28.78,0,0,0,6.42,5,27.28,27.28,0,0,0,9,3.38c6.58,1.27,11.66.32,15.22-2.93a19.47,19.47,0,0,1,6.16-3.64,62.83,62.83,0,0,1,8.39-2.65c5.15-1.25,8.32-3.38,10.11-6.22a34.91,34.91,0,0,0,3.42-7.16c1.59-4.62,3-9.26,4.58-13.88A67.13,67.13,0,0,0,247.44,598.18Zm34.17-36.11a11,11,0,0,0,1.39,5.11c2.1,4.48,5.35,8.74,8.44,13,2.8,3.89,5.45,7.81,6.91,11.93a26.16,26.16,0,0,0,2.82,6.07c2.66,4,7.57,6.91,14.68,8.69,6.44,1.6,9.77.72,13.13-1.17a40.42,40.42,0,0,1,9.68-3.62c1.27-.32,2.51-.68,3.76-1a21.74,21.74,0,0,0,9.42-4.82c1-.94,2.11-1.86,3-2.84,3.29-3.57,8.54-5.4,15.94-5.46a36.16,36.16,0,0,0,6.45-.62c2.66-.51,4.39-1.5,5.09-3a3.65,3.65,0,0,0,.27-2.26,105.47,105.47,0,0,0-2.79-11.72,108.58,108.58,0,0,0-7.88-18.59c-2.42-4.62-3.53-9.29-2.26-14.08a106.65,106.65,0,0,1,5.43-16.1,23.13,23.13,0,0,0,2.37-9c0-1.93-1.85-2.53-5.08-1.75-4.23,1-8.41,2.18-12.82,2.91A32.9,32.9,0,0,0,345.86,519a63.26,63.26,0,0,0-6.42,5.22,103.46,103.46,0,0,1-20.81,14.27c-8.08,4.36-16.8,8.34-25.33,12.43A49.92,49.92,0,0,0,286,555C283,557.09,281.34,559.43,281.61,562.07Z"/><path class="cls-6" d="M485.83,660.13c-2.6,2.57-5.17,5.14-7.83,7.68-2.16,2.07-4.36,4.13-6.69,6.14-4.07,3.51-7.44,4.18-14.59,2.85a252.38,252.38,0,0,0-27.78-3.69c-5.39-.4-10.79-.68-16.24-.71-3.77,0-7.52-.18-11.25-.5-6.68-.58-11.89-2.43-15.9-5.33a24.49,24.49,0,0,1-3.68-3.11c-5.56-6.09-11.87-12-16.65-18.26-3.55-4.65-7.23-9.28-10.9-13.9-1.38-1.74-2.85-3.47-4.38-5.18-1.9-2.13-1.47-4.12.89-6.07a22.86,22.86,0,0,1,5.5-3.23c3.24-1.39,6.77-2.55,10.32-3.68,3.7-1.18,7.43-2.34,10.85-3.76a35.59,35.59,0,0,1,18.14-2l36.68,4.43q15.89,1.93,31.77,3.9a95,95,0,0,1,9.78,1.66c4.59,1.07,8.58,2.56,11.52,4.8a2,2,0,0,0,.44.09Z"/><path class="cls-6" d="M485.83,575.44a32.68,32.68,0,0,0-6.31,6c-.94,1.07-1.7,2.19-2.57,3.28-.53.65-1.08,1.3-1.69,1.93-1.95,2-5,2.9-9.14,2.46-10.48-1.1-21.05-2-31.15-4A79.41,79.41,0,0,1,423.2,582c-5.92-2.14-9.3-5.09-9.92-8.94a20.08,20.08,0,0,1-.46-4c.22-4.68-1.56-9.16-4.15-13.56-2.4-4.07-5-8.11-7.28-12.19-3.2-5.66-5.35-11.42-4.94-17.37a16.08,16.08,0,0,1,4-9.66c4.11-4.81,10.94-8,19.81-10.11A143.89,143.89,0,0,1,440,503.31c9.93-.89,20-1.44,29.73-2.85,4.49-.64,8.93-1.37,13.3-2.22a10.85,10.85,0,0,1,2.78-.36Z"/><path class="cls-6" d="M111.73,677.81a39.41,39.41,0,0,1,13.18,3.62c1.34.61,2.54,1.31,3.8,2,.5.26,1,.52,1.51.79,4.6,2.58,10,3.14,16.13,1.93,1.73-.34,3.49-.64,5.25-.94,11.61-2,22.27.34,28.16,6.12A16,16,0,0,1,183.7,697c1.57,4.23,5.33,7.81,10.82,10.89,2.25,1.26,4.58,2.49,6.84,3.75,3.42,1.91,6,4.08,6.91,6.75a8.64,8.64,0,0,1-.54,6.22c-2,4.76-5.7,9.17-9.81,13.48-.32.34-.64.67-.95,1H111.73Z"/><path class="cls-6" d="M305.36,739.12c0-.41-.5-.7-.83-1-2.3-2.33-2.08-4.64.09-7a24.29,24.29,0,0,1,5.39-4c1.71-1,3.49-2,5.28-3a59.35,59.35,0,0,0,7.86-5,50.92,50.92,0,0,1,7.36-4.83,29.55,29.55,0,0,1,17.62-3.22c.86.09,1.75.1,2.61.19A29.8,29.8,0,0,0,366.4,709a50.07,50.07,0,0,0,6.93-3.89l8.64-5.74c.61-.4,1.31-.76,2-1.15,5.53-3.23,12.29-4.77,20.47-4.41,3.4.16,6.82.28,10.17.64,11.53,1.23,17.56,4.61,19.7,11,1.17,3.47,1.29,7,1.57,10.49a16.43,16.43,0,0,0,3,8.92c1.5,2,3.09,4,4.74,6,1.87,2.25,3.72,4.5,5.58,6.76a3.33,3.33,0,0,1,.91,1.47Z"/><path class="cls-6" d="M111.73,620.21a3.73,3.73,0,0,1,2.57.83c5.69,3,10.93,6.15,16,9.42,7.95,5.12,15.91,10.23,22.6,15.88,4.88,4.12,9.44,8.33,12.15,13a11.71,11.71,0,0,1,1.83,5.44,4,4,0,0,1-.33,1.69c-1.06,2.64-4.61,4-9.56,3.78a56.56,56.56,0,0,1-9.57-1.45c-5.42-1.23-10.52-2.8-15.65-4.34-4.21-1.27-8.36-2.59-12.8-3.62a24.86,24.86,0,0,0-7.25-1Z"/><path class="cls-6" d="M231.17,739.12c0-.19-.08-.4.06-.55A38.89,38.89,0,0,1,243,729.39a18.92,18.92,0,0,1,7.37-2A17.54,17.54,0,0,1,259,729a23.08,23.08,0,0,1,5,3.09c2.54,2.1,5,4.25,7.71,6.27.32.23.61.47.47.78Z"/><path class="cls-6" d="M485.83,727.71a2.14,2.14,0,0,1-1.27-.44,58.68,58.68,0,0,0-6.6-3.85,26.43,26.43,0,0,1-5.94-4.15c-3.3-3.25-3-6.09,1.73-8.75A30.23,30.23,0,0,0,484.41,701a5.56,5.56,0,0,1,1.42-1.51Z"/><path class="cls-6" d="M353.92,283.45l-.16-.28H485.83V473.93l-.53,0V285.25c0-.29,0-.57,0-.86,0-.66-.54-1-1.75-.94H353.92Z"/><path class="cls-6" d="M111.73,332.78V320.52l.53,0c.47.11.93.26,1.42.34,2.18.34,4.41.61,6.55,1,2.84.53,5.26,1.41,5.6,3.21s-1.67,2.71-4,3.56c-1.67.61-3.42,1.15-5.07,1.77s-3.27,1.28-4,2.35A1.73,1.73,0,0,1,111.73,332.78Z"/><path class="cls-6" d="M112.26,320.47l-.53,0V283.17h192l-.12.28h-187c-.88,0-1.76,0-2.63,0-1.22,0-1.77.3-1.73.95,0,.33,0,.67,0,1Q112.25,302.93,112.26,320.47Z"/><path class="cls-6" d="M111.73,518.13c1,.25.86.78.93,1.23a51.17,51.17,0,0,1,0,17.63c-.09.5.09,1.08-1,1.38Z"/><path class="cls-6" d="M111.73,395.8c1.22.31,1.25,1,1.52,1.56,1.38,2.94,1.12,5.91.36,8.87-.24.94-.6,1.87-.89,2.8-.11.34-.26.65-1,.74Z"/><path class="cls-6" d="M111.73,332.78a1.73,1.73,0,0,0,1-.06l0,8.7a1.41,1.41,0,0,0-1-.08Z"/><path class="cls-6" d="M483.73,739.12c.25-.62,1-1,2.1-1.14v1.14Z"/><path class="cls-6" d="M353.92,283.45H483.55c1.21,0,1.79.28,1.75.94,0,.29,0,.57,0,.86V473.91a32,32,0,0,1-11.85,4,33.44,33.44,0,0,1-10.89,0c-1.17-.19-2.36-.35-3.54-.53-4.06-.61-8-.06-11.94.4a83.91,83.91,0,0,0-13.65,2.92c-4.71,1.37-9.37,2.79-14.08,4.15a93.42,93.42,0,0,1-14.22,2.9c-4.5.57-8.26,0-11.53-1.75a13.94,13.94,0,0,1-5.66-5.23c-1.4-2.41-1.89-4.92-2.6-7.4-.41-1.46-.85-2.91-1.38-4.35-1-2.7-3.36-4.95-7.55-6.6-3.2-1.25-6.31-2.56-9.42-3.87a45.29,45.29,0,0,1-6.93-3.49,15,15,0,0,1-5.19-5.07c-2.64-4.67-5.08-9.38-8-14A55.16,55.16,0,0,0,331.3,419.6c-1-.68-2-1.34-3-2-3.87-2.35-5.85-5.14-6.62-8.22-.91-3.62-1.24-7.28-2.48-10.88-1.07-3.11-3.82-5.68-8.05-7.82-2.89-1.46-6.14-2.67-9.28-4a63.38,63.38,0,0,1-8-3.92c-2.06-1.22-2.78-2.63-2.6-4.19a12.63,12.63,0,0,1,3.66-7.95c1.33-1.33,2.54-2.71,4-4a41.1,41.1,0,0,0,11.73-17.57c2.28-6.58,4-13.21,6.26-19.79,2.43-7,5.66-13.9,11.53-20.35a52.28,52.28,0,0,1,6.47-6,101.51,101.51,0,0,0,17.79-18.22C353.05,284.26,353.2,283.77,353.92,283.45Z"/><path class="cls-6" d="M112.71,341.42l0-8.7c.76-1.07,2.36-1.74,4-2.35s3.4-1.16,5.07-1.77c2.32-.85,4.32-1.87,4-3.56s-2.76-2.68-5.6-3.21c-2.14-.41-4.37-.68-6.55-1-.49-.08-1-.23-1.42-.34q0-17.54,0-35.07c0-.33,0-.67,0-1,0-.65.51-1,1.73-.95.87,0,1.75,0,2.63,0h187c.25.55-.57.87-1,1.24a63.1,63.1,0,0,1-8.4,5.84,53.52,53.52,0,0,0-6.24,4.22c-3.56,2.82-4.6,5.89-3.47,9.23a61.16,61.16,0,0,1,2.57,8.42,27.55,27.55,0,0,1-.92,13.2c-3,9.81-9,19.12-17.05,28a57.45,57.45,0,0,1-7,6.36c-7.12,5.64-16.42,9.82-28.1,12.44-7.77,1.75-15.72,3.24-23.61,4.81-12.49,2.49-25,4.94-37.51,7.43-5.66,1.13-9.73,1.71-15.23-2.65-3.9-3.1-7.45-6.33-11.11-9.51l-27.69-24.06a35.3,35.3,0,0,1-5.37-5.54C113.19,342.43,112.71,342,112.71,341.42Z"/><path class="cls-6" d="M211.08,481.27c4.84-.06,10.1.1,15.36-.15a55.38,55.38,0,0,0,17.34-3.38A99.92,99.92,0,0,0,254.19,473l24.14-12.51a58.11,58.11,0,0,1,6.7-3,28.85,28.85,0,0,1,22.69.58,38.91,38.91,0,0,1,9.08,5.69c9.07,7.48,14.95,15.66,18,24.45a25.31,25.31,0,0,1,1.75,9.19,6.47,6.47,0,0,1-1.2,3.77c-1.37,1.85-3.55,3.26-7.23,3.85a14.71,14.71,0,0,0-5.93,2.25,24.2,24.2,0,0,0-5.76,5.25c-3.92,5-9.38,9.56-14,14.36-2.83,2.95-7,5.33-11.93,7.31-7.64,3.11-15.35,6.17-23.07,9.22q-17.3,6.86-34.64,13.68c-4,1.57-8.08,3-12.3,4.38-14,4.51-28.44,4.87-43.39,1.61A158.79,158.79,0,0,1,149.25,554q-2.72-1.12-5.34-2.32c-3-1.39-4.63-3.19-4.84-5.33-.56-5.6-1.86-11.16-2.9-16.74-1.22-6.53-2-13.07-.21-19.61a27.55,27.55,0,0,1,11.84-16.38c8-5.46,18.57-8.73,30.81-10.55a191,191,0,0,1,27.59-1.77Z"/><path class="cls-6" d="M131,484.24a30.53,30.53,0,0,1-11.41-1.8c-3.66-1.39-5.18-3.31-4.49-5.68.48-1.69,1.24-3.35,1.8-5a23.07,23.07,0,0,0,1-8c-.12-5,2.55-9.44,8-13.45,1.6-1.18,3.09-2.42,4.74-3.59,6.18-4.39,9.24-9.42,10.6-14.84,1.06-4.23,1.56-8.5,3.12-12.7a25.1,25.1,0,0,1,4.1-7.2c3.49-4.28,9.29-7.17,17.4-8.75,4.55-.89,9.24-1.48,14-2a98.81,98.81,0,0,0,22.07-4.79c4.05-1.41,8.17-2.76,12.54-3.89a48.94,48.94,0,0,1,28.3.95,42,42,0,0,1,11.74,5.84,68.16,68.16,0,0,1,7.48,6.7,83.69,83.69,0,0,0,7.18,6.64,34.07,34.07,0,0,0,10.69,5.6c2.48.81,4.86,1.7,7.26,2.58,15.93,5.8,12.59,17.95-.07,22.81a75.36,75.36,0,0,1-10.87,3.15c-3.48.77-7,1.52-10.49,2.27a53.9,53.9,0,0,0-13.59,4.79c-2.65,1.38-5.34,2.74-7.92,4.17-7.44,4.11-16.59,6.41-26.86,7.6-7,.82-14.15,1.34-21.23,2-11.46,1-21.92,3.23-31.08,7.17-4.81,2.07-9.61,4.14-14.78,5.95a59.54,59.54,0,0,1-14.43,3.29C134.18,484.19,132.61,484.22,131,484.24Z"/><path class="cls-6" d="M222.69,702.16c.27-10.45,5.88-19.25,17.26-27,4.77-3.23,9.8-6.34,14.84-9.44,8.1-5,14.74-10.5,19.57-16.64a76.09,76.09,0,0,1,7.95-8.83,37.22,37.22,0,0,1,10.45-6.9,40.91,40.91,0,0,1,7.11-2.42c7.89-1.89,15.61-1.17,21.85,2a27.12,27.12,0,0,1,9.39,7.83,57.86,57.86,0,0,1,5.67,9.63A39.87,39.87,0,0,0,348.33,664a65.08,65.08,0,0,1,6.08,5.33c5.18,5.15,5.79,10.47,2.23,16a35.19,35.19,0,0,1-7.94,8.33,167.58,167.58,0,0,1-23.88,15.72,71.94,71.94,0,0,1-14.41,5.91A69,69,0,0,1,287,717.57c-5-.3-9.85-.85-14.72-1.47-7.18-.91-14.55-1.17-21.82-1.78-5-.41-10-.87-14.91-1.69a54.93,54.93,0,0,1-5.82-1.3c-3.13-.9-5.09-2.27-6-4.13A11.2,11.2,0,0,1,222.69,702.16Z"/><path class="cls-6" d="M247.44,598.18a67.13,67.13,0,0,1-3.82,20.18c-1.55,4.62-3,9.26-4.58,13.88a34.91,34.91,0,0,1-3.42,7.16c-1.79,2.84-5,5-10.11,6.22a62.83,62.83,0,0,0-8.39,2.65,19.47,19.47,0,0,0-6.16,3.64c-3.56,3.25-8.64,4.2-15.22,2.93a27.28,27.28,0,0,1-9-3.38,28.78,28.78,0,0,1-6.42-5c-5.93-6.49-13.46-12.44-20.8-18.47-9.16-7.52-16.57-15.54-21.81-24.11-2.27-3.71-3.69-7.52-3.44-11.47a11.08,11.08,0,0,1,.76-3.39c1.9-4.73,7.37-7.63,15.83-9a96.84,96.84,0,0,1,11.37-1.09c8.24-.3,16.32-1.16,24.43-1.91,11.5-1,23.05-1.86,34.68-2.34a59.79,59.79,0,0,1,9.66.43c5.93.74,9.94,2.67,12.17,5.72a16.8,16.8,0,0,1,2.58,5.66A43.81,43.81,0,0,1,247.44,598.18Z"/><path class="cls-6" d="M281.61,562.07c-.27-2.64,1.4-5,4.36-7.09a49.92,49.92,0,0,1,7.33-4.08c8.53-4.09,17.25-8.07,25.33-12.43a103.46,103.46,0,0,0,20.81-14.27,63.26,63.26,0,0,1,6.42-5.22,32.9,32.9,0,0,1,13.71-5.24c4.41-.73,8.59-1.89,12.82-2.91,3.23-.78,5.1-.18,5.08,1.75a23.13,23.13,0,0,1-2.37,9,106.65,106.65,0,0,0-5.43,16.1c-1.27,4.79-.16,9.46,2.26,14.08a108.58,108.58,0,0,1,7.88,18.59,105.47,105.47,0,0,1,2.79,11.72,3.65,3.65,0,0,1-.27,2.26c-.7,1.51-2.43,2.5-5.09,3a36.16,36.16,0,0,1-6.45.62c-7.4.06-12.65,1.89-15.94,5.46-.9,1-2,1.9-3,2.84a21.74,21.74,0,0,1-9.42,4.82c-1.25.34-2.49.7-3.76,1a40.42,40.42,0,0,0-9.68,3.62c-3.36,1.89-6.69,2.77-13.13,1.17-7.11-1.78-12-4.68-14.68-8.69a26.16,26.16,0,0,1-2.82-6.07c-1.46-4.12-4.11-8-6.91-11.93-3.09-4.29-6.34-8.55-8.44-13A11,11,0,0,1,281.61,562.07Z"/></g><path class="cls-3" d="M404.16,546.28c12,51.22-27.72,85.36-56.48,80.65s-45,5.89-76.37,8.84c-27.8,2.6-57.65-9.93-71-30,15.41,9.45,35.4,14.44,53.93,12.7,31.7-3,48.08-13.72,77.15-9s74.69-31.82,62.54-83.71,11.43-110.13-1.78-150.09c-2.78-8.4-6.25-13.09-11.12-20.24a2.71,2.71,0,0,1-.17-.25c.84.77,1.66,1.54,2.47,2.32a1.07,1.07,0,0,1,.19.18c1.83,1.76,3.59,3.56,5.27,5.44.15.16.31.33.46.51,7.27,8.16,13.24,17.7,18.27,31,11.26,29.74-3.49,71.24-6,112.18l-.12,2.28c0,.57-.06,1.15-.08,1.73l0,.71c0,.23,0,.46,0,.7,0,.81-.05,1.62-.07,2.44v.09c0,1,0,2,0,3,0,1.17,0,2.34,0,3.5A120.27,120.27,0,0,0,404.16,546.28Z"/></svg>